<svg width="31" height="38" viewBox="0 0 31 38" fill="none" xmlns="http://www.w3.org/2000/svg">
<path d="M28.2427 5.81571H21.3157V3.36859C21.3157 1.84748 20.1634 0.609375 18.7472 0.609375H12.0645C10.6483 0.609375 9.49606 1.84748 9.49606 3.36859V5.81571H2.56844C1.15221 5.81571 0 7.05381 0 8.57492V12.1632C0 12.7936 0.475971 13.3043 1.06244 13.3043H3.85133V34.4383C3.85133 35.9594 5.00354 37.1963 6.41977 37.1963H24.7893C26.2055 37.1963 27.3577 35.9594 27.3577 34.4383V13.3043H29.7482C30.3347 13.3043 30.8107 12.7936 30.8107 12.1632V8.57492C30.8107 7.05381 29.659 5.81571 28.2427 5.81571ZM11.6209 3.36859C11.6209 3.10556 11.8196 2.8916 12.064 2.8916H18.7467C18.9911 2.8916 19.1903 3.10556 19.1903 3.36859V5.81571H11.6204V3.36859H11.6209ZM25.2329 34.4383C25.2329 34.7013 25.0337 34.9141 24.7893 34.9141H6.41977C6.17541 34.9141 5.9762 34.7013 5.9762 34.4383V13.3043H25.2329V34.4383ZM28.6858 11.022H26.2953H4.91377H2.12487V8.57492C2.12487 8.31189 2.32408 8.09793 2.56844 8.09793H10.558H20.2527H28.2422C28.4866 8.09793 28.6858 8.31189 28.6858 8.57492V11.022Z" fill="#C01F41"/>
</svg>
