<svg width="35" height="35" viewBox="0 0 35 35" fill="none" xmlns="http://www.w3.org/2000/svg">
<g clip-path="url(#clip0)">
<path d="M34.9112 29.9908C34.7574 29.2516 34.0335 28.7771 33.2941 28.931C32.5548 29.0849 32.0803 29.8089 32.2343 30.5481C32.323 30.9739 32.2173 31.4103 31.9447 31.7457C31.7868 31.9399 31.4347 32.2656 30.851 32.2656H4.14891C3.56526 32.2656 3.21314 31.9398 3.05523 31.7457C2.78254 31.4104 2.677 30.9739 2.76566 30.5481C4.18452 23.733 10.1957 18.7547 17.1375 18.5868C17.2578 18.5914 17.3786 18.5938 17.5 18.5938C17.6218 18.5938 17.7431 18.5914 17.8638 18.5867C22.7537 18.704 27.2733 21.1807 30.0104 25.2627C30.4308 25.8899 31.2801 26.0574 31.9073 25.6369C32.5345 25.2164 32.702 24.3671 32.2815 23.74C30.0381 20.3942 26.7806 17.9613 23.0663 16.7388C25.3297 15.0415 26.7968 12.3373 26.7968 9.29688C26.7968 4.17061 22.6263 0 17.5 0C12.3736 0 8.2031 4.17061 8.2031 9.29688C8.2031 12.3391 9.672 15.0448 11.9378 16.742C9.86184 17.4254 7.91394 18.4889 6.20906 19.8912C3.08285 22.4627 0.909222 26.0494 0.0887041 29.9908C-0.168464 31.2258 0.139632 32.4943 0.933831 33.4709C1.72413 34.4427 2.89602 35 4.14891 35H30.851C32.1039 35 33.2758 34.4427 34.066 33.4709C34.8604 32.4943 35.1684 31.2258 34.9112 29.9908ZM10.9375 9.29688C10.9375 5.67827 13.8814 2.73438 17.5 2.73438C21.1186 2.73438 24.0625 5.67827 24.0625 9.29688C24.0625 12.8041 21.297 15.6775 17.8321 15.851C17.7216 15.849 17.6109 15.848 17.5 15.848C17.3896 15.848 17.2793 15.8491 17.1691 15.8511C13.7036 15.6782 10.9375 12.8045 10.9375 9.29688Z" fill="#F9FCFB"/>
</g>
<defs>
<clipPath id="clip0">
<rect width="35" height="35" fill="white"/>
</clipPath>
</defs>
</svg>
