<svg width="18" height="19" viewBox="0 0 18 19" fill="none" xmlns="http://www.w3.org/2000/svg">
<path d="M10.0688 1.44088L17.557 8.92912C18.1477 9.51972 18.1477 10.4776 17.557 11.0682C16.9664 11.6588 16.0086 11.6588 15.418 11.0682L8.99998 4.6502L2.58204 11.0682C1.99143 11.6588 1.03356 11.6588 0.442955 11.0682C-0.147654 10.4776 -0.147654 9.51972 0.442955 8.92912L7.93119 1.44088C8.52033 0.850273 9.47817 0.850273 10.0688 1.44088ZM10.5222 10.4446L16.788 16.3896C17.4169 16.987 17.4169 17.9546 16.788 18.552C16.1592 19.1493 15.1391 19.1493 14.5096 18.552L9.38299 13.6877L4.25642 18.552C3.62757 19.1493 2.60678 19.1493 1.97793 18.552C1.34909 17.9546 1.34909 16.987 1.97793 16.3896L8.24375 10.4446C8.87256 9.84725 9.89265 9.84725 10.5222 10.4446Z" fill="#FF0036"/>
</svg>
