<svg width="38" height="38" viewBox="0 0 38 38" fill="none" xmlns="http://www.w3.org/2000/svg">
<path d="M17.1288 26.2973L16.6294 30.7883C16.6047 31.0117 16.6765 31.2359 16.8265 31.4037C16.9765 31.5715 17.1914 31.6674 17.4164 31.6674H20.5831C20.808 31.6674 21.023 31.5715 21.173 31.4037C21.323 31.236 21.3949 31.0118 21.3701 30.7883L20.8707 26.2973C21.6817 25.7074 22.1664 24.7743 22.1664 23.7507C22.1664 22.0042 20.7462 20.584 18.9997 20.584C17.2532 20.584 15.833 22.0042 15.833 23.7507C15.833 24.7743 16.3178 25.7074 17.1288 26.2973ZM18.9997 22.1674C19.8725 22.1674 20.583 22.8779 20.583 23.7507C20.583 24.3576 20.2382 24.9011 19.6831 25.1701C19.3808 25.317 19.2038 25.6371 19.2409 25.9703L19.6986 30.084H18.3009L18.7586 25.9703C18.7957 25.637 18.6187 25.317 18.3164 25.1701C17.7613 24.9011 17.4165 24.3576 17.4165 23.7507C17.4164 22.8779 18.1269 22.1674 18.9997 22.1674Z" fill="#F9FCFB"/>
<path d="M32.4583 14.25H30.0833V11.0833C30.0833 4.97191 25.1115 0 19 0C12.8885 0 7.91669 4.97191 7.91669 11.0833V14.25H5.54169C5.1041 14.25 4.75 14.6041 4.75 15.0417V34.8334C4.75 36.5798 6.17018 38 7.91669 38H30.0834C31.8298 38 33.25 36.5798 33.25 34.8333V15.0417C33.25 14.6041 32.8959 14.25 32.4583 14.25ZM9.5 11.0833C9.5 5.84473 13.7614 1.58331 19 1.58331C24.2386 1.58331 28.5 5.84473 28.5 11.0833V14.25H26.9167V11.0833C26.9167 6.71828 23.365 3.16662 19 3.16662C14.635 3.16662 11.0833 6.71835 11.0833 11.0833V14.25H9.5V11.0833ZM25.3333 11.0833V14.25H12.6667V11.0833C12.6667 7.59117 15.5079 4.75 19 4.75C22.4921 4.75 25.3333 7.59117 25.3333 11.0833ZM31.6667 34.8333C31.6667 35.7061 30.9562 36.4166 30.0834 36.4166H7.91669C7.04388 36.4166 6.33338 35.7061 6.33338 34.8333V15.8333H31.6667V34.8333Z" fill="#F9FCFB"/>
</svg>
