<svg width="37" height="36" viewBox="0 0 37 36" fill="none" xmlns="http://www.w3.org/2000/svg">
<g clip-path="url(#clip0)">
<path d="M23.8412 0.207917C23.6715 0.0340578 23.4389 -0.0703125 23.1979 -0.0703125H8.76419C6.1008 -0.0703125 3.90234 2.06021 3.90234 4.65134V31.2078C3.90234 33.7992 6.1008 35.9297 8.76419 35.9297H28.3544C31.0178 35.9297 33.2163 33.7992 33.2163 31.2078V10.1209C33.2163 9.89485 33.109 9.6776 32.9571 9.51225L23.8412 0.207917ZM24.1003 2.99927L30.2045 9.23403H26.2364C25.0567 9.23403 24.1003 8.31227 24.1003 7.16447V2.99927ZM28.3544 34.1906H8.76419C7.09305 34.1906 5.68979 32.8429 5.68979 31.2078V4.65134C5.68979 3.02537 7.08401 1.66883 8.76419 1.66883H22.3129V7.16447C22.3129 9.27742 24.0648 10.9732 26.2364 10.9732H31.4288V31.2078C31.4288 32.8429 30.0346 34.1906 28.3544 34.1906Z" fill="#FF0036"/>
<path d="M25.9149 28.1914H11.2043C10.7128 28.1914 10.3105 28.5825 10.3105 29.061C10.3105 29.5392 10.7128 29.9305 11.2043 29.9305H25.9239C26.4154 29.9305 26.8176 29.5392 26.8176 29.061C26.8176 28.5825 26.4154 28.1914 25.9149 28.1914Z" fill="#FF0036"/>
<path d="M17.9075 25.0695C18.0774 25.2434 18.3097 25.3477 18.5598 25.3477C18.8102 25.3477 19.0425 25.2434 19.2122 25.0695L24.4495 19.6C24.7891 19.252 24.7623 18.6955 24.4049 18.3739C24.0472 18.0435 23.4753 18.0693 23.1448 18.4173L19.4536 22.2694V12.7739C19.4536 12.2954 19.0513 11.9043 18.5598 11.9043C18.0684 11.9043 17.6661 12.2954 17.6661 12.7739V22.2694L13.9839 18.4173C13.6443 18.0696 13.0812 18.0435 12.7238 18.3739C12.3664 18.7043 12.3396 19.2522 12.6792 19.6L17.9075 25.0695Z" fill="#FF0036"/>
</g>
<defs>
<clipPath id="clip0">
<rect width="37" height="36" fill="white"/>
</clipPath>
</defs>
</svg>
