<svg width="339" height="242" viewBox="0 0 339 242" fill="none" xmlns="http://www.w3.org/2000/svg">
<g clip-path="url(#clip0)">
<path opacity="0.1" d="M333.633 162.694C325.77 178.872 309.805 189.689 293.26 196.823C270.986 206.43 246.457 210.241 222.265 208.629C218.025 208.348 213.799 207.898 209.585 207.28C194.95 205.151 180.681 201.006 167.188 194.966C163.294 193.217 159.478 191.307 155.742 189.237C149.501 185.787 143.521 181.887 137.85 177.567C136.424 176.481 135.017 175.367 133.63 174.226C132.669 173.435 131.716 172.626 130.748 171.841C128.706 170.185 126.605 168.612 124.261 167.434C123.554 167.079 122.829 166.76 122.089 166.478C114.668 163.662 106.109 164.725 98.3829 166.921C92.5059 168.591 86.7769 170.879 80.9057 172.511C78.2942 173.259 75.6333 173.823 72.9425 174.199C66.9349 174.958 60.8341 174.423 55.051 172.632L54.5568 172.478C53.7282 172.219 52.9065 171.934 52.0918 171.625L51.5976 171.437C50.8085 171.134 50.0361 170.808 49.2805 170.46L48.7863 170.235C47.9972 169.869 47.2248 169.483 46.4692 169.075C46.197 168.934 45.9277 168.78 45.6614 168.636C41.3624 166.241 37.4547 163.206 34.073 159.636C33.9754 159.539 33.8837 159.439 33.7771 159.341C33.3066 158.833 32.845 158.317 32.3981 157.789C32.2324 157.594 32.0667 157.399 31.9039 157.198C31.3732 156.553 30.8613 155.893 30.3681 155.218C30.2941 155.12 30.2231 155.02 30.1521 154.923C28.1314 152.134 26.4561 149.113 25.1628 145.923C25.1214 145.826 25.0829 145.726 25.0474 145.628C24.6528 144.615 24.2928 143.585 23.9673 142.538C23.8341 142.101 23.7069 141.653 23.5944 141.216C23.556 141.086 23.5204 140.953 23.4879 140.823C21.8544 134.409 21.668 127.742 21.668 121.113C21.668 120.339 21.668 119.567 21.668 118.796C21.7153 108.073 21.881 97.1669 23.4672 86.5915C23.4672 86.5177 23.4879 86.4439 23.4997 86.3731C24.0306 82.8129 24.7527 79.2836 25.6629 75.8006C26.6156 72.146 27.833 68.5652 29.3057 65.0865C32.9545 56.5271 38.2603 48.7379 44.1522 41.5185C58.9927 23.3517 78.4555 8.10109 101.236 2.3928C125.782 -3.75526 153.064 2.13602 172.864 17.8589C178.901 22.6522 184.325 28.328 191.104 32.0027C197.023 35.2022 203.95 36.5274 210.289 34.0097C215.527 31.9289 218.936 30.8959 224.819 31.2117C236.998 31.8989 249.004 34.4071 260.436 38.6525C260.898 38.8208 261.359 38.9949 261.818 39.169C291.62 50.5413 317.238 73.1354 330.555 102.17C330.908 102.937 331.25 103.71 331.582 104.49C339.521 122.987 342.392 144.666 333.633 162.694Z" fill="#FF0036"/>
<path opacity="0.1" d="M35.5996 219.296C50.0275 219.296 61.7237 217.423 61.7237 215.111C61.7237 212.8 50.0275 210.926 35.5996 210.926C21.1717 210.926 9.47559 212.8 9.47559 215.111C9.47559 217.423 21.1717 219.296 35.5996 219.296Z" fill="#FF0036"/>
<path opacity="0.1" d="M269.958 242C295.541 242 316.279 239.991 316.279 237.514C316.279 235.036 295.541 233.027 269.958 233.027C244.376 233.027 223.638 235.036 223.638 237.514C223.638 239.991 244.376 242 269.958 242Z" fill="#FF0036"/>
<path d="M311.897 31.8027H38.0652C36.0239 31.8027 34.3691 33.4532 34.3691 35.4892V187.007C34.3691 189.043 36.0239 190.693 38.0652 190.693H311.897C313.938 190.693 315.593 189.043 315.593 187.007V35.4892C315.593 33.4532 313.938 31.8027 311.897 31.8027Z" fill="url(#paint0_linear)"/>
<path d="M311.482 34.0371H38.5115C36.4702 34.0371 34.8154 35.6876 34.8154 37.7236V186.478C34.8154 188.514 36.4702 190.165 38.5115 190.165H311.482C313.524 190.165 315.178 188.514 315.178 186.478V37.7236C315.178 35.6876 313.524 34.0371 311.482 34.0371Z" fill="white"/>
<path d="M311.482 34.0371H38.5115C36.4702 34.0371 34.8154 35.6876 34.8154 37.7236V186.478C34.8154 188.514 36.4702 190.165 38.5115 190.165H311.482C313.524 190.165 315.178 188.514 315.178 186.478V37.7236C315.178 35.6876 313.524 34.0371 311.482 34.0371Z" fill="white"/>
<path opacity="0.04" d="M311.482 34.0371H38.5115C36.4702 34.0371 34.8154 35.6876 34.8154 37.7236V186.478C34.8154 188.514 36.4702 190.165 38.5115 190.165H311.482C313.524 190.165 315.178 188.514 315.178 186.478V37.7236C315.178 35.6876 313.524 34.0371 311.482 34.0371Z" fill="white"/>
<path d="M313.755 32.2461H36.2388C35.8613 32.2461 35.4993 32.3957 35.2323 32.6619C34.9654 32.9282 34.8154 33.2893 34.8154 33.6658V39.6663H315.167V33.6658C315.167 33.2913 315.018 32.932 314.754 32.6661C314.489 32.4002 314.13 32.2492 313.755 32.2461Z" fill="#5A5773"/>
<path d="M40.4137 37.8741C41.4761 37.8741 42.3372 37.0152 42.3372 35.9556C42.3372 34.8961 41.4761 34.0371 40.4137 34.0371C39.3514 34.0371 38.4902 34.8961 38.4902 35.9556C38.4902 37.0152 39.3514 37.8741 40.4137 37.8741Z" fill="white"/>
<path d="M45.5924 37.8741C46.6548 37.8741 47.5159 37.0152 47.5159 35.9556C47.5159 34.8961 46.6548 34.0371 45.5924 34.0371C44.5301 34.0371 43.6689 34.8961 43.6689 35.9556C43.6689 37.0152 44.5301 37.8741 45.5924 37.8741Z" fill="white"/>
<path d="M50.7712 37.8741C51.8335 37.8741 52.6946 37.0152 52.6946 35.9556C52.6946 34.8961 51.8335 34.0371 50.7712 34.0371C49.7088 34.0371 48.8477 34.8961 48.8477 35.9556C48.8477 37.0152 49.7088 37.8741 50.7712 37.8741Z" fill="white"/>
<path opacity="0.2" d="M133.145 53.6211H57.9062V59.9905H133.145V53.6211Z" fill="#FF0036"/>
<path opacity="0.1" d="M292.088 79.1602H57.9062V177.14H292.088V79.1602Z" fill="#5A5773"/>
<path opacity="0.1" d="M195.022 85.5513H191.012V77.7829C191.012 69.0168 184.005 61.7294 175.216 61.5966C173.097 61.5744 170.994 61.9707 169.029 62.7628C167.064 63.5548 165.275 64.7269 163.766 66.2115C162.258 67.696 161.058 69.4638 160.238 71.4128C159.417 73.3618 158.991 75.4535 158.984 77.5674V85.5513H154.984C153.215 85.5568 151.521 86.2597 150.271 87.5068C149.021 88.7538 148.316 90.4435 148.311 92.207V124.149C148.316 125.912 149.021 127.602 150.271 128.849C151.521 130.096 153.215 130.799 154.984 130.804H195.022C196.79 130.799 198.484 130.096 199.733 128.849C200.983 127.602 201.687 125.912 201.692 124.149V92.207C201.687 90.4438 200.983 88.754 199.733 87.5069C198.484 86.2598 196.79 85.5568 195.022 85.5513ZM177.341 106.315V117.756C177.344 118.361 177.117 118.946 176.705 119.391C176.293 119.836 175.727 120.108 175.121 120.152C174.805 120.167 174.489 120.118 174.192 120.007C173.896 119.897 173.625 119.727 173.396 119.509C173.167 119.291 172.984 119.029 172.86 118.739C172.735 118.449 172.671 118.136 172.671 117.821V106.31C171.588 105.783 170.717 104.906 170.198 103.822C169.68 102.737 169.545 101.51 169.816 100.339C170.087 99.1688 170.747 98.1244 171.69 97.3765C172.632 96.6287 173.801 96.2216 175.006 96.2216C176.21 96.2216 177.379 96.6287 178.322 97.3765C179.264 98.1244 179.925 99.1688 180.196 100.339C180.467 101.51 180.332 102.737 179.813 103.822C179.295 104.906 178.423 105.783 177.341 106.31V106.315ZM186.348 85.5513H163.654V77.5674C163.654 74.5669 164.849 71.6894 166.976 69.5677C169.104 67.4461 171.989 66.2541 174.997 66.2541C178.005 66.2541 180.89 67.4461 183.017 69.5677C185.145 71.6894 186.34 74.5669 186.34 77.5674L186.348 85.5513Z" fill="black"/>
<path d="M195.022 84.9595H191.012V77.1911C191.012 68.425 184.005 61.1376 175.216 61.0048C173.097 60.9826 170.994 61.3789 169.029 62.171C167.064 62.963 165.275 64.1351 163.766 65.6197C162.258 67.1043 161.058 68.872 160.238 70.821C159.417 72.77 158.991 74.8617 158.984 76.9756V84.9595H154.984C153.215 84.965 151.521 85.6679 150.271 86.915C149.021 88.162 148.316 89.8517 148.311 91.6152V123.557C148.316 125.32 149.021 127.01 150.271 128.257C151.521 129.504 153.215 130.207 154.984 130.213H195.022C196.79 130.207 198.484 129.504 199.733 128.257C200.983 127.01 201.687 125.32 201.692 123.557V91.6152C201.687 89.852 200.983 88.1622 199.733 86.9151C198.484 85.668 196.79 84.965 195.022 84.9595ZM177.341 105.724V117.164C177.344 117.77 177.117 118.354 176.705 118.799C176.293 119.244 175.727 119.516 175.121 119.56C174.805 119.575 174.489 119.526 174.192 119.415C173.896 119.305 173.625 119.135 173.396 118.918C173.167 118.7 172.984 118.437 172.86 118.147C172.735 117.857 172.671 117.544 172.671 117.229V105.718C171.588 105.191 170.717 104.314 170.198 103.23C169.68 102.146 169.545 100.918 169.816 99.7475C170.087 98.577 170.747 97.5326 171.69 96.7847C172.632 96.0369 173.801 95.6298 175.006 95.6298C176.21 95.6298 177.379 96.0369 178.322 96.7847C179.264 97.5326 179.925 98.577 180.196 99.7475C180.467 100.918 180.332 102.146 179.813 103.23C179.295 104.314 178.423 105.191 177.341 105.718V105.724ZM186.348 84.9595H163.654V76.9756C163.654 73.9751 164.849 71.0976 166.976 68.9759C169.104 66.8543 171.989 65.6623 174.997 65.6623C178.005 65.6623 180.89 66.8543 183.017 68.9759C185.145 71.0976 186.34 73.9751 186.34 76.9756L186.348 84.9595Z" fill="#FF0036"/>
<path opacity="0.1" d="M292.087 69.7305H268.384V75.3118H292.087V69.7305Z" fill="#5A5773"/>
<path d="M300.154 238.866C299.998 238.083 299.731 237.327 299.361 236.62L295.81 231.33H295.831C295.831 231.33 295.272 228.674 295.831 227.369C296.39 226.065 293.836 222.857 293.836 222.857C293.836 222.857 293.526 222.051 294.337 221.059C295.147 220.067 293.836 217.163 293.836 217.163C293.836 217.163 293.215 211.098 293.153 210.171C293.091 209.244 292.591 204.108 292.591 204.108L291.407 193.22L289.3 164.363L289.262 163.823C289.522 163.696 289.661 163.616 289.661 163.616L289.241 147.66L289.605 147.332C292.783 144.463 300.113 137.823 300.039 137.678C299.965 137.533 299.151 126.589 299.057 123.85C298.975 121.903 298.548 119.987 297.796 118.189C297.612 117.826 297.083 115.432 296.864 114.42C296.805 114.142 296.766 113.968 296.766 113.968C296.766 113.968 294.618 109.883 294.804 108.027C294.991 106.17 295.363 104.78 290.783 104.131C290.783 104.131 286.936 103.558 284.645 101.997C283.291 101.061 281.81 100.322 280.248 99.8007C280.248 99.8007 278.963 97.4395 278.07 98.2394C277.691 97.3968 277.408 96.5147 277.226 95.6095L277.2 95.4443C278.896 94.2644 280.117 92.5216 280.644 90.527C280.674 90.4148 280.698 90.2997 280.724 90.1876C280.813 90.2176 280.906 90.2345 280.999 90.2377C281.778 90.2377 282.257 89.3729 282.985 89.0984C283.281 88.9833 283.645 88.9656 283.873 88.7324C283.948 88.6425 284.004 88.5384 284.037 88.4263C284.071 88.3141 284.081 88.1964 284.068 88.0801C284.075 87.9996 284.075 87.9186 284.068 87.8381C284.069 87.8096 284.069 87.781 284.068 87.7525V87.782C283.87 86.7077 283.035 85.7543 283.127 84.6623C283.216 83.6351 284.121 82.732 284.047 81.7314C284.046 81.6523 284.039 81.5733 284.027 81.4953V81.5307C283.916 81.14 283.713 80.7816 283.435 80.4858C283.116 80.053 282.698 79.7027 282.216 79.4646C281.804 79.2845 281.328 79.2432 280.943 79.0278C279.813 78.4138 279.816 76.8141 279.144 75.722C278.856 75.2661 278.448 74.8984 277.964 74.6593C277.48 74.4203 276.939 74.3192 276.401 74.3673C275.56 74.4499 274.8 74.8956 273.968 75.0402C272.832 75.2409 271.675 74.872 270.598 74.4499C269.521 74.0278 268.429 73.5645 267.272 73.5645C266.114 73.5645 264.863 74.1548 264.514 75.2439C264.327 75.8342 264.419 76.4688 264.277 77.0679C264.022 78.1246 263.093 78.8802 262.131 79.4056C261.539 79.7332 260.835 80.108 260.652 80.7278C260.652 80.7101 260.652 80.6954 260.652 80.6806C260.638 80.7301 260.629 80.7804 260.622 80.8312C260.616 80.8969 260.616 80.9631 260.622 81.0289C260.622 81.4539 260.847 81.8583 260.998 82.2627C261.279 83.0319 261.273 83.8766 260.98 84.6416C260.761 85.2024 260.388 85.6953 260.175 86.2531C260.075 86.513 260.009 86.7849 259.98 87.0619V87.0146C259.973 87.1405 259.973 87.2666 259.98 87.3924C259.976 87.8235 260.078 88.2489 260.276 88.6321C260.412 88.8967 260.599 89.1314 260.827 89.3225C261.056 89.5136 261.32 89.6572 261.605 89.7448C262.196 89.8806 262.566 89.3021 263.191 89.4497C263.302 89.4765 263.412 89.511 263.519 89.553C263.54 89.6858 263.561 89.8186 263.584 89.9485C263.962 91.9349 265.023 93.7274 266.585 95.0163C266.585 95.0871 266.609 95.1579 266.618 95.2317C266.807 96.4085 266.889 97.5998 266.863 98.7913C266.863 98.7913 265.931 97.4306 264.653 100.058C264.653 100.058 261.318 101.976 260.166 102.194C259.015 102.413 254.929 103.833 254.929 103.833C254.312 104.277 253.57 104.516 252.81 104.514C251.534 104.514 250.475 107.298 250.629 108.812C250.783 110.326 250.537 111.442 249.35 111.504C248.164 111.566 248.812 113.965 248.821 114.007L248.711 114.523C248.48 115.58 247.977 117.846 247.8 118.201C247.047 119.999 246.62 121.915 246.536 123.862C246.444 126.601 245.648 137.504 245.557 137.69C245.495 137.811 250.516 142.389 254.047 145.588L254.559 146.048L252.934 161.184C252.981 161.767 253.155 162.333 253.443 162.843C253.732 163.352 254.127 163.793 254.603 164.136C254.603 164.313 254.603 164.493 254.585 164.679C254.514 166.45 254.372 168.592 254.088 169.153C253.591 170.145 253.715 175.464 253.715 175.464C253.715 175.464 253.215 186.29 252.594 187.467C251.972 188.645 251.845 191.116 252.031 191.6C252.218 192.084 251.407 205.085 251.407 205.085L250.786 210.903C250.786 210.903 250.972 216.469 250.41 216.593C249.848 216.717 249.537 220.554 249.537 220.554C249.537 220.554 247.545 223.276 248.415 224.264C249.285 225.253 248.288 225.69 248.196 225.935C248.105 226.18 246.297 227.116 247.604 230.575C247.616 230.609 247.63 230.642 247.646 230.675C246.421 232.372 242.538 237.847 242.775 238.68C242.95 239.209 243.32 239.652 243.811 239.919C244.725 240.465 246.294 240.719 248.788 239.919C252.931 238.588 252.635 237.629 252.635 237.629C252.656 237.18 252.849 236.757 253.174 236.446C253.499 236.136 253.931 235.961 254.381 235.958C256.095 235.834 257.373 234.258 257.373 234.258L257.172 233.512L256.896 232.479C256.929 232.183 257.139 231.667 258.08 231.381C259.515 230.947 259.14 228.225 259.14 228.225C259.14 228.225 259.015 225.38 259.637 225.008C260.258 224.636 260.013 219.934 260.013 219.934C260.013 219.934 260.699 216.531 261.693 214.241C262.688 211.951 263.877 198.344 263.877 198.344C263.877 198.344 264.685 191.662 265.434 189.743C266.183 187.825 266.869 182.444 266.869 182.444C266.869 182.444 271.482 173.533 271.542 171.553C271.542 171.553 272.134 169.696 272.725 171.739C273.317 173.781 274.98 178.669 274.98 178.669L276.599 184.669L278.531 193.639L279.78 201.189C279.78 201.189 279.591 204.035 280.076 205.026C280.561 206.018 281.26 208.302 280.887 208.736C280.514 209.17 281.633 211.213 281.946 211.644C282.26 212.074 281.946 221.233 281.946 221.233C281.946 221.233 283.379 229.028 285.435 230.383C285.579 230.477 285.731 230.556 285.891 230.619C285.861 231.463 285.832 232.594 285.87 233.184C285.866 233.316 285.888 233.447 285.935 233.571C286.122 233.819 288.241 235.489 288.679 235.489C289.117 235.489 290.67 236.572 290.735 237.098C290.8 237.623 295.289 239.849 295.926 239.913C296.562 239.978 299.645 240.53 300.069 239.666C300.173 239.413 300.203 239.135 300.154 238.866ZM289.125 127.38L289.445 127.654C289.445 127.654 289.773 130.208 290.007 130.972C290.241 131.736 289.96 133.224 289.96 133.224C289.981 133.779 290.092 134.327 290.288 134.847C290.567 135.405 289.726 136.618 289.726 136.618H288.977L288.744 127.061L289.125 127.38ZM266.863 98.8444V98.7883C266.857 98.8061 266.854 98.8267 266.854 98.8444H266.863ZM255.367 135.635C255.251 135.388 255.234 135.107 255.319 134.847C255.386 134.707 255.438 134.561 255.476 134.411C255.568 134.023 255.625 133.628 255.648 133.23C255.648 133.225 255.648 133.22 255.648 133.215C255.621 133.073 255.381 131.704 255.603 130.978C255.825 130.252 256.163 127.66 256.163 127.66L256.376 127.48L256.87 127.052C256.87 127.052 256.87 126.893 256.905 126.63C257.009 128.873 257.092 131.353 256.959 131.477C256.71 131.722 255.805 134.133 256.023 134.228C256.095 134.26 255.997 135.225 255.831 136.524C255.645 136.245 255.489 135.947 255.367 135.635Z" fill="url(#paint1_linear)"/>
<path d="M279.218 101.202V104.874L271.666 108.661C271.666 108.661 264.168 104.136 266.017 102.335C267.201 101.196 266.973 98.0675 266.653 95.9158C266.467 94.6643 266.251 93.7464 266.251 93.7464C266.251 93.7464 279.721 89.9094 277.685 92.8226C277.005 93.7966 276.951 95.0569 277.179 96.3054C277.641 98.7817 279.218 101.202 279.218 101.202Z" fill="#C37098"/>
<path d="M258.53 137.108L257.556 149.068C257.556 149.068 256.097 147.749 254.21 146.031C250.709 142.846 245.737 138.292 245.796 138.171C245.888 137.985 246.684 127.135 246.77 124.408C246.851 122.472 247.274 120.566 248.019 118.776C248.196 118.422 248.696 116.167 248.907 115.113C248.978 114.786 249.022 114.573 249.022 114.573L250.655 113.918C250.655 113.918 257.462 121.492 257.462 121.63C257.462 121.769 256.997 127.587 256.997 127.587L256.515 128.006L256.305 128.186C256.305 128.186 255.979 130.727 255.748 131.489C255.517 132.25 255.766 133.572 255.793 133.714C255.771 134.112 255.714 134.507 255.624 134.895C255.585 135.044 255.533 135.189 255.467 135.328C255.384 135.587 255.401 135.867 255.515 136.114C255.646 136.456 255.817 136.782 256.024 137.085L258.53 137.108Z" fill="#3F3D56"/>
<path d="M299.778 138.17C299.849 138.314 292.59 144.923 289.445 147.777L288.018 149.067L287.054 137.107H289.554C289.554 137.107 290.389 135.906 290.111 135.351C289.917 134.834 289.808 134.289 289.788 133.737C289.788 133.737 290.063 132.261 289.832 131.496C289.602 130.732 289.276 128.194 289.276 128.194L288.959 127.922L288.584 127.594C288.584 127.594 288.119 121.777 288.119 121.638C288.119 121.499 294.925 113.926 294.925 113.926L296.547 114.572C296.547 114.572 296.582 114.746 296.642 115.024C296.861 116.03 297.384 118.412 297.565 118.775C298.31 120.564 298.733 122.471 298.814 124.407C298.891 127.134 299.684 137.984 299.778 138.17Z" fill="#3F3D56"/>
<path d="M299.808 239.685C299.373 240.547 296.32 239.98 295.689 239.933C295.059 239.886 290.608 237.651 290.546 237.129C290.484 236.606 288.942 235.529 288.51 235.529C288.078 235.529 285.98 233.864 285.794 233.619C285.746 233.497 285.725 233.367 285.731 233.236C285.666 232.223 285.794 229.617 285.794 229.617L294.745 230.11L299.095 236.636C299.462 237.34 299.727 238.092 299.882 238.87C299.935 239.143 299.91 239.426 299.808 239.685Z" fill="#3F3D56"/>
<path opacity="0.1" d="M299.808 239.685C299.373 240.547 296.32 239.98 295.689 239.933C295.059 239.886 290.608 237.651 290.546 237.129C290.484 236.606 288.942 235.529 288.51 235.529C288.078 235.529 285.98 233.864 285.794 233.619C285.746 233.497 285.725 233.367 285.731 233.236C285.666 232.223 285.794 229.617 285.794 229.617L294.745 230.11L299.095 236.636C299.462 237.34 299.727 238.092 299.882 238.87C299.935 239.143 299.91 239.426 299.808 239.685Z" fill="black"/>
<path opacity="0.1" d="M299.808 239.685C299.373 240.547 296.319 239.981 295.688 239.933C295.058 239.886 290.607 237.652 290.545 237.129C290.483 236.607 288.941 235.53 288.509 235.53C288.077 235.53 285.979 233.865 285.793 233.62C285.745 233.498 285.724 233.367 285.731 233.236L288.631 235.066C288.631 235.066 290.483 236.247 290.977 236.946C291.471 237.646 295.366 239.101 295.688 239.131C295.928 239.154 298.485 238.664 299.882 238.871C299.934 239.144 299.909 239.426 299.808 239.685Z" fill="black"/>
<path d="M257.491 234.299C257.491 234.299 256.225 235.869 254.532 235.99C254.085 235.993 253.657 236.168 253.336 236.477C253.014 236.786 252.824 237.207 252.804 237.652C252.804 237.652 253.1 238.608 249.007 239.933C246.536 240.727 244.983 240.476 244.077 239.933C243.591 239.666 243.224 239.225 243.05 238.7C242.772 237.717 248.235 230.235 248.235 230.235L253.206 229.939L256.757 231.539L257.302 233.567L257.491 234.299Z" fill="#3F3D56"/>
<path opacity="0.1" d="M257.491 234.299C257.491 234.299 256.225 235.869 254.532 235.99C254.085 235.993 253.657 236.168 253.336 236.477C253.014 236.786 252.824 237.207 252.804 237.652C252.804 237.652 253.1 238.608 249.007 239.933C246.536 240.727 244.983 240.476 244.077 239.933C243.591 239.666 243.224 239.225 243.05 238.7C242.772 237.717 248.235 230.235 248.235 230.235L253.206 229.939L256.757 231.539L257.302 233.567L257.491 234.299Z" fill="black"/>
<path opacity="0.1" d="M257.491 234.298C257.491 234.298 256.225 235.869 254.532 235.99C254.085 235.993 253.657 236.167 253.335 236.477C253.014 236.786 252.824 237.206 252.804 237.651C252.804 237.651 253.1 238.608 249.007 239.933C246.536 240.727 244.983 240.476 244.077 239.933C246.406 239.691 251.552 238.224 252.067 237.716C252.686 237.099 253.458 235.405 253.982 235.376C254.346 235.352 256.195 234.242 257.305 233.555L257.491 234.298Z" fill="black"/>
<path d="M295.609 227.433C295.053 228.726 295.609 231.374 295.609 231.374C295.609 231.374 287.324 231.805 285.299 230.45C283.275 229.095 281.843 221.335 281.843 221.335C281.843 221.335 282.139 212.224 281.843 211.793C281.547 211.362 280.423 209.332 280.793 208.901C281.162 208.47 280.497 206.191 279.991 205.205C279.485 204.219 279.695 201.389 279.695 201.389L278.458 193.874L276.546 184.949L274.921 178.975C274.921 178.975 273.255 174.111 272.69 172.08C272.125 170.049 271.527 171.894 271.527 171.894C271.468 173.866 266.899 182.732 266.899 182.732C266.899 182.732 266.218 188.089 265.479 189.996C264.739 191.903 263.934 198.555 263.934 198.555C263.934 198.555 262.75 212.1 261.774 214.379C260.797 216.657 260.125 220.043 260.125 220.043C260.125 220.043 260.374 224.724 259.755 225.093C259.137 225.462 259.238 228.295 259.238 228.295C259.238 228.295 259.607 231.002 258.187 231.436C256.767 231.87 257.003 232.79 257.003 232.79C257.003 232.79 249.102 234.083 247.806 230.633C246.51 227.182 248.3 226.265 248.398 226.017C248.496 225.769 249.481 225.341 248.617 224.352C247.753 223.363 249.727 220.66 249.727 220.66C249.727 220.66 250.037 216.843 250.591 216.719C251.144 216.595 250.964 211.055 250.964 211.055L251.579 205.267C251.579 205.267 252.384 192.337 252.198 191.844C252.011 191.351 252.135 188.892 252.754 187.712C253.372 186.531 253.864 175.764 253.864 175.764C253.864 175.764 253.739 170.472 254.233 169.486C254.529 168.928 254.654 166.782 254.725 165.032C254.778 163.695 254.79 162.588 254.79 162.588L261.703 160.002L270.58 157.172L278.049 160.743L288.978 162.836L289.114 164.716L291.2 193.437L292.384 204.273C292.384 204.273 292.878 209.382 292.94 210.306C293.002 211.229 293.618 217.265 293.618 217.265C293.618 217.265 294.914 220.158 294.112 221.144C293.31 222.129 293.618 222.915 293.618 222.915C293.618 222.915 296.166 226.141 295.609 227.433Z" fill="#3F3D56"/>
<path opacity="0.1" d="M277.69 92.8218C277.01 93.7958 276.956 95.0561 277.184 96.3046C275.629 97.3989 273.757 97.9532 271.855 97.8823C269.953 97.8113 268.127 97.1191 266.658 95.9121C266.472 94.6606 266.256 93.7427 266.256 93.7427C266.256 93.7427 279.726 89.9116 277.69 92.8218Z" fill="black"/>
<path d="M280.839 89.0563C280.839 90.7667 280.331 92.4387 279.378 93.8609C278.425 95.2831 277.071 96.3915 275.487 97.046C273.902 97.7006 272.159 97.8719 270.477 97.5382C268.795 97.2045 267.25 96.3808 266.038 95.1714C264.825 93.9619 263.999 92.421 263.665 90.7435C263.33 89.0659 263.502 87.3271 264.158 85.7469C264.814 84.1666 265.926 82.816 267.352 81.8658C268.777 80.9155 270.454 80.4083 272.169 80.4083C273.309 80.4028 274.439 80.6228 275.493 81.0554C276.548 81.4881 277.506 82.1249 278.312 82.929C279.118 83.7332 279.757 84.6887 280.19 85.7404C280.624 86.7921 280.845 87.9191 280.839 89.0563Z" fill="#C37098"/>
<path opacity="0.1" d="M282.645 103.428L279.804 153.885L264.371 150.653L261.314 130.426L264.342 103.271L266.62 103.564L270.639 104.074L274.619 104.319L278.934 103.841L282.645 103.428Z" fill="black"/>
<path d="M282.645 103.796L279.804 154.253L264.371 151.021L261.314 130.794L264.342 103.643L266.62 103.932L270.639 104.442L274.619 104.687L278.934 104.209L282.645 103.796Z" fill="#FF0036"/>
<path d="M269.958 105.152L275.515 105.338L273.953 107.519C273.953 107.519 274.062 111.926 274.805 113.189C275.548 114.453 275.329 133.968 275.329 133.968L273.849 136.769L271.319 133.629L271.352 107.862L269.958 105.152Z" fill="#3F3D56"/>
<path opacity="0.1" d="M269.958 105.152L275.515 105.338L273.953 107.519C273.953 107.519 274.062 111.926 274.805 113.189C275.548 114.453 275.329 133.968 275.329 133.968L273.849 136.769L271.319 133.629L271.352 107.862L269.958 105.152Z" fill="black"/>
<path opacity="0.1" d="M278.661 99.4258L273.477 105.152L276.439 108.23L281.348 103.458L278.661 99.4258Z" fill="black"/>
<path d="M278.661 99.0566L273.477 104.783L276.439 107.861L281.348 103.088L278.661 99.0566Z" fill="#FF0036"/>
<path opacity="0.1" d="M271.287 104.874L266.037 99.6406L265.543 102.38L267.952 108.383L271.287 104.874Z" fill="black"/>
<path d="M271.47 104.505L266.224 99.2715L265.729 102.011L268.138 108.014L271.47 104.505Z" fill="#FF0036"/>
<path opacity="0.1" d="M289.14 164.726C286.621 165.923 283.922 166.702 281.15 167.031C276.058 167.677 272.726 161.213 272.726 161.213L270.781 163.737C270.163 166.417 260.75 167.093 256.923 166.078C256.129 165.882 255.383 165.53 254.728 165.042C254.781 163.705 254.793 162.598 254.793 162.598L261.705 160.012L270.583 157.182L278.052 160.753L288.981 162.846L289.14 164.726Z" fill="black"/>
<path opacity="0.1" d="M282.645 103.799L279.807 154.253L264.371 151.021L261.309 130.797L264.333 103.643L266.612 103.938C266.553 104.927 266.442 105.912 266.277 106.889C265.907 108.616 268.192 120.868 268.192 120.868C268.192 120.868 272.533 134.607 274.486 132.627C276.439 130.646 279.221 120.189 279.221 120.189C281.106 116.311 279.253 105.431 279.114 105.213C279.017 104.891 278.958 104.559 278.937 104.224L282.645 103.799Z" fill="black"/>
<path opacity="0.1" d="M289.312 142.844L289.442 147.788L288.015 149.078L287.054 137.109H289.184L289.312 142.844Z" fill="black"/>
<path opacity="0.1" d="M255.796 133.723C255.774 134.12 255.717 134.515 255.627 134.903C255.627 134.794 255.627 134.732 255.603 134.723C255.514 134.7 255.621 134.248 255.796 133.723Z" fill="black"/>
<path opacity="0.1" d="M258.529 137.108L257.556 149.067C257.556 149.067 256.097 147.748 254.209 146.03L254.434 143.911C254.434 143.911 255.23 138.705 255.52 136.137C255.651 136.479 255.822 136.805 256.029 137.108H258.529Z" fill="black"/>
<path d="M266.901 99.4558C266.901 99.4558 265.978 98.1011 264.711 100.716C264.711 100.716 261.409 102.626 260.273 102.841C259.136 103.057 255.094 104.473 255.094 104.473C254.484 104.914 253.749 105.15 252.996 105.149C251.729 105.149 250.679 107.921 250.833 109.429C250.987 110.937 250.741 112.047 249.569 112.109C248.397 112.171 249.042 114.6 249.042 114.6L256.852 123.529C256.852 123.529 257.346 131.749 257.1 131.997C256.855 132.244 255.958 134.653 256.174 134.736C256.39 134.818 254.99 143.909 254.99 143.909L253.108 161.55C253.108 161.55 253.108 164.502 256.938 165.52C260.767 166.538 270.186 165.866 270.793 163.186L272.737 160.659C272.737 160.659 276.069 167.126 281.162 166.479C286.255 165.833 289.498 163.985 289.498 163.985L288.942 142.843L288.572 127.605L296.523 114.574C296.523 114.574 294.393 110.509 294.579 108.671C294.765 106.832 295.132 105.439 290.596 104.792C290.596 104.792 286.77 104.223 284.515 102.667C283.175 101.739 281.71 101.004 280.165 100.483C280.165 100.483 278.892 98.1217 278.007 98.9304C278.007 98.9304 278.895 102.269 278.821 102.767C278.747 103.266 278.96 105.521 279.099 105.754C279.238 105.988 281.091 116.852 279.206 120.731C279.206 120.731 276.439 131.188 274.471 133.168C272.503 135.149 268.177 121.409 268.177 121.409C268.177 121.409 265.892 109.155 266.262 107.431C266.632 105.707 266.901 99.4558 266.901 99.4558Z" fill="#3F3D56"/>
<path d="M273.507 139.819C274.257 139.819 274.865 139.212 274.865 138.464C274.865 137.716 274.257 137.109 273.507 137.109C272.757 137.109 272.148 137.716 272.148 138.464C272.148 139.212 272.757 139.819 273.507 139.819Z" fill="#3F3D56"/>
<path d="M273.507 146.206C274.257 146.206 274.865 145.599 274.865 144.851C274.865 144.103 274.257 143.496 273.507 143.496C272.757 143.496 272.148 144.103 272.148 144.851C272.148 145.599 272.757 146.206 273.507 146.206Z" fill="#3F3D56"/>
<path opacity="0.1" d="M273.507 139.819C274.257 139.819 274.865 139.212 274.865 138.464C274.865 137.716 274.257 137.109 273.507 137.109C272.757 137.109 272.148 137.716 272.148 138.464C272.148 139.212 272.757 139.819 273.507 139.819Z" fill="black"/>
<path opacity="0.1" d="M273.507 146.206C274.257 146.206 274.865 145.599 274.865 144.851C274.865 144.103 274.257 143.496 273.507 143.496C272.757 143.496 272.148 144.103 272.148 144.851C272.148 145.599 272.757 146.206 273.507 146.206Z" fill="black"/>
<path opacity="0.1" d="M285.713 225.586C285.713 225.586 291.288 226.017 291.841 226.448C292.395 226.879 285.713 225.586 285.713 225.586Z" fill="black" stroke="#FF0036" stroke-miterlimit="10"/>
<path opacity="0.1" d="M252.52 221.215C252.52 221.215 253.703 222.691 253.2 223.369C252.697 224.048 252.52 221.215 252.52 221.215Z" fill="black" stroke="#FF0036" stroke-miterlimit="10"/>
<path opacity="0.1" d="M253.94 226.536C253.94 226.536 256.101 225.12 256.965 226.061C257.829 227.003 253.94 226.536 253.94 226.536Z" fill="black" stroke="#FF0036" stroke-miterlimit="10"/>
<path opacity="0.1" d="M280.839 89.0571C280.841 89.795 280.747 90.5301 280.561 91.2442C280.378 91.1612 280.226 91.0246 280.123 90.8526C280.02 90.6807 279.973 90.4816 279.987 90.282C280.025 89.9308 280.259 89.609 280.209 89.2608C280.135 88.7236 279.484 88.5052 279.14 88.0801C278.717 87.5666 278.809 86.8198 278.845 86.1557C278.88 85.4916 278.711 84.68 278.087 84.4527C277.901 84.3848 277.696 84.3789 277.516 84.3022C277.025 84.0956 276.874 83.4875 276.545 83.0684C275.888 82.2243 274.583 82.242 273.586 82.6434C273.152 82.851 272.707 83.0362 272.254 83.1983C272.027 83.2781 271.786 83.3101 271.547 83.2923C271.307 83.2746 271.073 83.2074 270.861 83.095C270.665 82.971 270.508 82.7998 270.307 82.6759C269.638 82.2745 268.762 82.6759 268.182 83.1924C267.602 83.7089 267.138 84.4025 266.407 84.7183C266.078 84.8659 265.673 84.9545 265.519 85.2732C265.443 85.4468 265.41 85.6362 265.424 85.8252C265.424 86.9733 265.561 88.1392 265.321 89.2637C265.167 89.9868 264.658 90.8074 263.921 90.7188C263.829 90.7053 263.739 90.6825 263.652 90.6509C263.43 89.4688 263.458 88.2535 263.734 87.0828C264.009 85.912 264.527 84.8114 265.253 83.8514C265.979 82.8913 266.898 82.093 267.951 81.5072C269.005 80.9214 270.169 80.5612 271.369 80.4495C272.57 80.3378 273.78 80.4771 274.924 80.8584C276.067 81.2398 277.119 81.8549 278.01 82.6644C278.902 83.4738 279.615 84.4599 280.103 85.5597C280.591 86.6594 280.844 87.8486 280.845 89.0512L280.839 89.0571Z" fill="black"/>
<path d="M263.265 90.1609C263.487 90.211 263.697 90.3261 263.925 90.3557C264.661 90.4442 265.17 89.6237 265.324 88.9005C265.564 87.776 265.44 86.6101 265.431 85.462C265.414 85.2732 265.446 85.0834 265.523 84.9101C265.691 84.5913 266.097 84.5027 266.41 84.3552C267.126 84.0364 267.594 83.3576 268.186 82.8292C268.778 82.3009 269.639 81.9113 270.308 82.3127C270.506 82.4308 270.666 82.6079 270.861 82.7318C271.075 82.8426 271.309 82.9089 271.549 82.9266C271.789 82.9444 272.03 82.9133 272.258 82.8351C272.716 82.6994 273.146 82.4603 273.586 82.2802C274.575 81.8788 275.883 81.8641 276.546 82.7023C276.874 83.1244 277.025 83.7294 277.516 83.9361C277.697 84.0128 277.901 84.0216 278.087 84.0895C278.712 84.3227 278.872 85.1285 278.845 85.7926C278.818 86.4567 278.73 87.2034 279.141 87.717C279.484 88.1361 280.135 88.3545 280.209 88.8976C280.257 89.2459 280.026 89.5705 279.987 89.9188C279.978 90.0483 279.995 90.1782 280.037 90.301C280.079 90.4238 280.145 90.5371 280.231 90.6343C280.318 90.7315 280.422 90.8107 280.539 90.8672C280.656 90.9238 280.784 90.9566 280.914 90.9637C281.683 90.9637 282.159 90.1048 282.878 89.8303C283.174 89.7152 283.532 89.6975 283.766 89.4643C283.853 89.3522 283.915 89.2226 283.946 89.0845C283.978 88.9464 283.979 88.803 283.95 88.6644C283.805 87.534 282.896 86.5511 282.994 85.4177C283.086 84.3316 284.095 83.3841 283.882 82.3157C283.773 81.9217 283.57 81.56 283.29 81.2619C282.973 80.8331 282.559 80.4844 282.082 80.2437C281.671 80.0666 281.195 80.0253 280.819 79.8098C279.7 79.1988 279.703 77.605 279.043 76.5188C278.76 76.0699 278.358 75.7075 277.882 75.4711C277.406 75.2347 276.874 75.1336 276.344 75.1788C275.513 75.2615 274.758 75.7012 273.936 75.8488C272.808 76.0495 271.666 75.6806 270.598 75.2585C269.529 74.8364 268.449 74.373 267.304 74.373C266.159 74.373 264.919 74.9634 264.57 76.0436C264.386 76.6339 264.478 77.2656 264.336 77.8588C264.087 78.9125 263.152 79.6622 262.211 80.1846C261.563 80.5447 260.785 80.9579 260.708 81.6929C260.658 82.1592 260.915 82.5783 261.078 83.0299C261.355 83.7939 261.348 84.6314 261.06 85.3912C260.844 85.949 260.483 86.439 260.264 86.9938C260.109 87.3704 260.035 87.7757 260.048 88.1827C260.062 88.5897 260.161 88.9893 260.341 89.3551C260.479 89.6217 260.67 89.8575 260.903 90.0478C261.135 90.2381 261.404 90.3791 261.693 90.4619C262.276 90.6006 262.643 90.0251 263.265 90.1609Z" fill="#3F3D56"/>
<g opacity="0.1">
<path opacity="0.1" d="M265.324 88.2573C265.171 88.9805 264.659 89.801 263.922 89.7124C263.694 89.6829 263.487 89.5678 263.262 89.5176C262.643 89.3819 262.276 89.9604 261.693 89.8128C261.404 89.73 261.134 89.5891 260.901 89.3988C260.668 89.2085 260.477 88.9727 260.338 88.706C260.183 88.4055 260.09 88.0775 260.063 87.7408C260.004 88.2634 260.1 88.7918 260.338 89.2608C260.477 89.5276 260.668 89.7634 260.901 89.9537C261.134 90.144 261.404 90.2849 261.693 90.3677C262.285 90.5034 262.643 89.9249 263.262 90.0725C263.478 90.1477 263.699 90.2117 263.922 90.2644C264.659 90.3559 265.171 89.5353 265.324 88.8122C265.446 88.1733 265.493 87.5227 265.466 86.873C265.464 87.3379 265.416 87.8015 265.324 88.2573Z" fill="black"/>
<path opacity="0.1" d="M261.27 83.8134C261.308 83.3297 261.241 82.8436 261.075 82.3878C260.941 82.0847 260.827 81.7731 260.734 81.4551C260.721 81.5047 260.712 81.5549 260.705 81.6056C260.654 82.069 260.915 82.4911 261.075 82.9427C261.178 83.223 261.244 83.5158 261.27 83.8134Z" fill="black"/>
<path opacity="0.1" d="M283.879 82.2578C283.74 83.0961 283.059 83.8841 282.991 84.7666C282.974 84.9177 282.974 85.0701 282.991 85.2212C283.139 84.1911 284.053 83.279 283.879 82.2578Z" fill="black"/>
<path opacity="0.1" d="M283.929 88.4844C283.904 88.6078 283.846 88.7221 283.76 88.815C283.542 89.0481 283.169 89.0658 282.873 89.1809C282.154 89.4554 281.689 90.3232 280.908 90.3143C280.708 90.303 280.516 90.2316 280.357 90.1093C280.199 89.9871 280.081 89.8198 280.02 89.6296C280.002 89.6935 279.988 89.7586 279.979 89.8244C279.97 89.9536 279.988 90.0832 280.03 90.2057C280.072 90.3281 280.138 90.4411 280.224 90.538C280.31 90.6349 280.415 90.7137 280.531 90.7701C280.648 90.8264 280.775 90.8591 280.905 90.8663C281.677 90.8663 282.151 90.0074 282.87 89.7358C283.166 89.6207 283.527 89.603 283.758 89.3698C283.844 89.2578 283.906 89.1282 283.938 88.9901C283.969 88.8519 283.97 88.7086 283.941 88.57C283.938 88.5346 283.932 88.5109 283.929 88.4844Z" fill="black"/>
<path opacity="0.1" d="M280.218 88.2405C280.144 87.7033 279.493 87.4849 279.15 87.0599C278.939 86.7807 278.825 86.4411 278.824 86.0918C278.801 86.6408 278.81 87.2016 279.15 87.6148C279.49 88.028 280.008 88.2051 280.174 88.6301C280.216 88.5048 280.231 88.372 280.218 88.2405Z" fill="black"/>
<path opacity="0.1" d="M278.842 85.1499C278.866 84.4858 278.706 83.6741 278.081 83.4468C277.898 83.3789 277.694 83.3701 277.513 83.2963C277.022 83.0897 276.868 82.4817 276.543 82.0626C275.883 81.2214 274.578 81.2361 273.583 81.6375C273.139 81.8176 272.716 82.0567 272.255 82.1924C272.028 82.2722 271.787 82.3043 271.547 82.2865C271.307 82.2687 271.073 82.2015 270.861 82.0891C270.666 81.9652 270.506 81.794 270.307 81.67C269.636 81.2686 268.76 81.67 268.183 82.1865C267.606 82.703 267.138 83.3937 266.407 83.7125C266.076 83.86 265.673 83.9486 265.502 84.2674C265.426 84.4411 265.395 84.6306 265.41 84.8193C265.41 84.9344 265.41 85.0495 265.41 85.1646C265.414 85.0457 265.443 84.929 265.496 84.8223C265.667 84.5035 266.07 84.4149 266.401 84.2674C267.117 83.9486 267.585 83.2697 268.177 82.7414C268.769 82.2131 269.63 81.8235 270.302 82.2249C270.5 82.343 270.66 82.52 270.855 82.6411C271.067 82.7541 271.301 82.8217 271.541 82.8395C271.781 82.8573 272.022 82.8249 272.249 82.7444C272.701 82.5838 273.145 82.3995 273.577 82.1924C274.569 81.791 275.874 81.7733 276.537 82.6145C276.862 83.0336 277.016 83.6416 277.507 83.8482C277.688 83.925 277.892 83.9338 278.075 84.0017C278.581 84.1906 278.783 84.7573 278.827 85.3181L278.842 85.1499Z" fill="black"/>
</g>
<g opacity="0.1">
<path opacity="0.1" d="M264.267 88.2388C264.284 87.7489 264.46 87.2777 264.769 86.8961C265.077 86.5145 265.502 86.243 265.978 86.1225C267.297 85.8008 268.682 85.8633 269.967 86.3026C272.775 87.2293 269.612 90.5646 269.612 90.5646C269.612 90.5646 267.508 92.6307 265.546 91.1874C264.966 90.7505 264.561 90.1231 264.401 89.4164C264.305 89.0314 264.26 88.6355 264.267 88.2388Z" fill="black"/>
<path opacity="0.1" d="M279.706 88.2384C279.688 87.7481 279.512 87.2766 279.203 86.8949C278.894 86.5133 278.469 86.242 277.992 86.1221C276.673 85.801 275.29 85.8634 274.006 86.3021C271.198 87.2289 274.361 90.5642 274.361 90.5642C274.361 90.5642 276.462 92.6303 278.427 91.187C279.007 90.7501 279.412 90.1227 279.572 89.416C279.668 89.031 279.713 88.635 279.706 88.2384Z" fill="black"/>
<path opacity="0.1" d="M269.438 86.0305V86.1692H274.566V86.0039L269.438 86.0305Z" fill="black"/>
<path opacity="0.1" d="M271.074 87.51H271.236V87.0407C271.236 87.0407 271.757 86.6364 272.621 87.0407V87.4598H272.917V87.1854H272.772C272.772 87.1854 272.831 86.6157 271.867 86.7072C271.867 86.7072 271.091 86.6334 271.109 87.1234H270.932L271.074 87.51Z" fill="black"/>
</g>
<path d="M264.268 88.0478C264.284 87.5579 264.46 87.0867 264.769 86.7051C265.077 86.3235 265.502 86.052 265.978 85.9315C267.298 85.6119 268.682 85.6744 269.967 86.1116C272.775 87.0413 269.612 90.3736 269.612 90.3736C269.612 90.3736 267.508 92.4397 265.546 90.9964C264.965 90.5606 264.559 89.9327 264.401 89.2254C264.304 88.8405 264.26 88.4445 264.268 88.0478Z" fill="#FF0036"/>
<path d="M279.705 88.0478C279.688 87.5575 279.512 87.0861 279.203 86.7044C278.894 86.3227 278.469 86.0515 277.992 85.9316C276.673 85.6119 275.29 85.6744 274.006 86.1116C271.198 87.0413 274.361 90.3736 274.361 90.3736C274.361 90.3736 276.462 92.4397 278.427 90.9964C279.008 90.5606 279.414 89.9328 279.572 89.2255C279.669 88.8405 279.713 88.4445 279.705 88.0478Z" fill="#FF0036"/>
<path d="M269.438 85.8449V85.9866H274.566V85.8184L269.438 85.8449Z" fill="#FF0036"/>
<path d="M271.074 87.3239H271.236V86.8546C271.236 86.8546 271.757 86.4532 272.621 86.8546V87.2767H272.917V86.9993H272.772C272.772 86.9993 272.831 86.4326 271.867 86.5211C271.867 86.5211 271.091 86.4503 271.109 86.9373H270.932L271.074 87.3239Z" fill="#FF0036"/>
<path d="M36.4396 134.941H34.7588V172.692H36.4396V134.941Z" fill="#535461"/>
<path d="M47.0047 172.576L46.8982 174.277L46.7502 176.676L46.6881 177.677L46.5401 180.079L46.475 181.08L46.327 183.479L44.6314 210.772C44.5591 211.947 44.0403 213.05 43.1808 213.856C42.3214 214.662 41.186 215.111 40.0061 215.111H31.1936C30.014 215.111 28.879 214.662 28.02 213.856C27.161 213.05 26.6429 211.947 26.5713 210.772L24.8667 183.479L24.7188 181.08L24.6566 180.079L24.5116 177.671L24.4495 176.67L24.3015 174.271L24.195 172.571C24.1748 172.244 24.2218 171.917 24.3331 171.61C24.4445 171.302 24.6178 171.021 24.8424 170.783C25.067 170.545 25.3381 170.355 25.639 170.225C25.9399 170.096 26.2642 170.029 26.592 170.029H44.6107C44.9389 170.029 45.2636 170.096 45.5648 170.226C45.866 170.356 46.1372 170.546 46.3616 170.785C46.5861 171.024 46.7589 171.306 46.8696 171.614C46.9802 171.922 47.0262 172.25 47.0047 172.576Z" fill="#3F3D56"/>
<path d="M46.8975 174.277L46.7495 176.677H24.4458L24.2979 174.277H46.8975Z" fill="#9D9CB5"/>
<path d="M46.6872 177.678L46.5392 180.08H24.6587L24.5078 177.678H46.6872Z" fill="#9D9CB5"/>
<path d="M46.475 181.08L46.327 183.48H24.8726L24.7217 181.08H46.475Z" fill="#9D9CB5"/>
<path d="M21.7322 149.092C31.5213 156.155 35.5992 167.206 35.5992 167.206C35.5992 167.206 23.8007 166.802 13.9968 159.739C4.1929 152.676 0.129883 141.625 0.129883 141.625C0.129883 141.625 11.9402 142.029 21.7322 149.092Z" fill="#FF0036"/>
<path d="M0.144531 141.625C0.144531 141.625 12.3898 148.414 16.3167 154.021C20.2436 159.629 35.599 167.209 35.599 167.209" stroke="#535461" stroke-width="2" stroke-miterlimit="10"/>
<path d="M28.0509 134.875C33.3775 138.712 35.5998 144.733 35.5998 144.733C35.5998 144.733 29.1783 144.515 23.8488 140.669C18.5192 136.823 16.3027 130.811 16.3027 130.811C16.3027 130.811 22.7243 131.014 28.0509 134.875Z" fill="#FF0036"/>
<path d="M16.3027 130.795C16.3027 130.795 22.9669 134.484 25.1035 137.539C27.24 140.594 35.5998 144.717 35.5998 144.717" stroke="#535461" stroke-width="2" stroke-miterlimit="10"/>
<path d="M43.3436 144.412C37.2209 151.121 35.9277 159.887 35.9277 159.887C35.9277 159.887 44.5568 157.777 50.6765 151.068C56.7962 144.359 58.0923 135.59 58.0923 135.59C58.0923 135.59 49.4632 137.7 43.3436 144.412Z" fill="#FF0036"/>
<path d="M58.0923 135.59C58.0923 135.59 50.1202 142.467 48.0931 147.207C46.066 151.947 35.9277 159.899 35.9277 159.899" stroke="#535461" stroke-width="2" stroke-miterlimit="10"/>
</g>
<defs>
<linearGradient id="paint0_linear" x1="174.98" y1="190.693" x2="174.98" y2="31.8027" gradientUnits="userSpaceOnUse">
<stop stop-color="#808080" stop-opacity="0.25"/>
<stop offset="0.54" stop-color="#808080" stop-opacity="0.12"/>
<stop offset="1" stop-color="#808080" stop-opacity="0.1"/>
</linearGradient>
<linearGradient id="paint1_linear" x1="54459.7" y1="142687" x2="54459.7" y2="48345.7" gradientUnits="userSpaceOnUse">
<stop stop-color="#808080" stop-opacity="0.25"/>
<stop offset="0.54" stop-color="#808080" stop-opacity="0.12"/>
<stop offset="1" stop-color="#808080" stop-opacity="0.1"/>
</linearGradient>
<clipPath id="clip0">
<rect width="339" height="242" fill="white"/>
</clipPath>
</defs>
</svg>
