<svg width="351" height="255" viewBox="0 0 351 255" fill="none" xmlns="http://www.w3.org/2000/svg">
<g clip-path="url(#clip0)">
<path d="M162.646 189.544H1.86871C1.3733 189.543 0.898356 189.346 0.548047 188.996C0.197737 188.646 0.000646221 188.171 0 187.675V38.3745C0.000649936 37.8791 0.197745 37.4042 0.548054 37.0539C0.898363 36.7036 1.3733 36.5065 1.86871 36.5059H162.646C163.142 36.5065 163.617 36.7036 163.967 37.0539C164.317 37.4042 164.515 37.8791 164.515 38.3745V187.675C164.515 188.17 164.318 188.645 163.967 188.996C163.617 189.346 163.142 189.543 162.646 189.544V189.544Z" fill="#F1F1F1"/>
<path d="M187.99 211.87H27.2125C26.717 211.869 26.2421 211.672 25.8918 211.322C25.5415 210.972 25.3444 210.497 25.3438 210.002V60.7006C25.3444 60.2052 25.5415 59.7303 25.8918 59.38C26.2421 59.0298 26.717 58.8327 27.2125 58.832H187.99C188.486 58.8327 188.961 59.0298 189.311 59.38C189.661 59.7303 189.858 60.2052 189.859 60.7006V210.001C189.858 210.497 189.661 210.972 189.311 211.322C188.961 211.672 188.486 211.869 187.99 211.87V211.87Z" fill="white"/>
<path d="M187.99 211.87H27.2125C26.717 211.869 26.2421 211.672 25.8918 211.322C25.5415 210.972 25.3444 210.497 25.3438 210.002V60.7006C25.3444 60.2052 25.5415 59.7303 25.8918 59.38C26.2421 59.0298 26.717 58.8327 27.2125 58.832H187.99C188.486 58.8327 188.961 59.0298 189.311 59.38C189.661 59.7303 189.858 60.2052 189.859 60.7006V210.001C189.858 210.497 189.661 210.972 189.311 211.322C188.961 211.672 188.486 211.869 187.99 211.87V211.87ZM27.2125 59.578C26.9155 59.5786 26.631 59.6969 26.421 59.9068C26.2111 60.1167 26.0929 60.4013 26.0922 60.6982V210.001C26.0929 210.298 26.2111 210.583 26.421 210.793C26.631 211.003 26.9155 211.121 27.2125 211.121H187.99C188.287 211.121 188.572 211.003 188.782 210.793C188.992 210.583 189.11 210.298 189.11 210.001V60.7006C189.11 60.4037 188.992 60.1192 188.782 59.9092C188.572 59.6993 188.287 59.5811 187.99 59.5804L27.2125 59.578Z" fill="#E6E6E6"/>
<path d="M158.059 125.762H57.1441C56.6487 125.761 56.1737 125.564 55.8233 125.214C55.473 124.864 55.2759 124.389 55.2754 123.893V79.6088C55.2759 79.1134 55.473 78.6385 55.8233 78.2881C56.1737 77.9378 56.6487 77.7408 57.1441 77.7402H158.059C158.555 77.7408 159.03 77.9378 159.38 78.2881C159.731 78.6385 159.928 79.1134 159.928 79.6088V123.893C159.928 124.389 159.731 124.864 159.38 125.214C159.03 125.564 158.555 125.761 158.059 125.762Z" fill="#FF0036"/>
<path d="M72.7945 96.6777C72.4585 96.6784 72.1364 96.8123 71.899 97.0502C71.6616 97.288 71.5283 97.6103 71.5283 97.9463C71.5283 98.2824 71.6616 98.6047 71.899 98.8425C72.1364 99.0803 72.4585 99.2143 72.7945 99.2149H142.409C142.745 99.2143 143.067 99.0803 143.305 98.8425C143.542 98.6047 143.675 98.2824 143.675 97.9463C143.675 97.6103 143.542 97.288 143.305 97.0502C143.067 96.8123 142.745 96.6784 142.409 96.6777H72.7945Z" fill="white"/>
<path d="M72.7945 104.291C72.4585 104.292 72.1364 104.426 71.899 104.663C71.6616 104.901 71.5283 105.224 71.5283 105.56C71.5283 105.896 71.6616 106.218 71.899 106.456C72.1364 106.694 72.4585 106.828 72.7945 106.828H108.334C108.67 106.828 108.992 106.694 109.23 106.456C109.467 106.218 109.6 105.896 109.6 105.56C109.6 105.224 109.467 104.901 109.23 104.663C108.992 104.426 108.67 104.292 108.334 104.291H72.7945Z" fill="white"/>
<path d="M42.3385 142.086C42.0024 142.087 41.6804 142.221 41.443 142.458C41.2056 142.696 41.0723 143.018 41.0723 143.355C41.0723 143.691 41.2056 144.013 41.443 144.251C41.6804 144.489 42.0024 144.622 42.3385 144.623H172.866C173.202 144.622 173.524 144.489 173.761 144.251C173.999 144.013 174.132 143.691 174.132 143.355C174.132 143.018 173.999 142.696 173.761 142.458C173.524 142.221 173.202 142.087 172.866 142.086H42.3385Z" fill="#E6E6E6"/>
<path d="M42.3385 149.697C42.0024 149.698 41.6804 149.832 41.443 150.07C41.2056 150.308 41.0723 150.63 41.0723 150.966C41.0723 151.302 41.2056 151.624 41.443 151.862C41.6804 152.1 42.0024 152.234 42.3385 152.234H138.791C139.127 152.234 139.449 152.1 139.687 151.862C139.924 151.624 140.057 151.302 140.057 150.966C140.057 150.63 139.924 150.308 139.687 150.07C139.449 149.832 139.127 149.698 138.791 149.697H42.3385Z" fill="#E6E6E6"/>
<path d="M42.3385 157.137C42.0024 157.137 41.6804 157.271 41.443 157.509C41.2056 157.747 41.0723 158.069 41.0723 158.405C41.0723 158.741 41.2056 159.064 41.443 159.302C41.6804 159.539 42.0024 159.673 42.3385 159.674H172.866C173.202 159.673 173.524 159.539 173.761 159.302C173.999 159.064 174.132 158.741 174.132 158.405C174.132 158.069 173.999 157.747 173.761 157.509C173.524 157.271 173.202 157.137 172.866 157.137H42.3385Z" fill="#E6E6E6"/>
<path d="M42.3385 164.75C42.0024 164.751 41.6804 164.885 41.443 165.122C41.2056 165.36 41.0723 165.683 41.0723 166.019C41.0723 166.355 41.2056 166.677 41.443 166.915C41.6804 167.153 42.0024 167.287 42.3385 167.287H138.791C139.127 167.287 139.449 167.153 139.687 166.915C139.924 166.677 140.057 166.355 140.057 166.019C140.057 165.683 139.924 165.36 139.687 165.122C139.449 164.885 139.127 164.751 138.791 164.75H42.3385Z" fill="#E6E6E6"/>
<path d="M172.058 194.368H133.806C133.311 194.367 132.836 194.17 132.485 193.82C132.135 193.469 131.938 192.994 131.938 192.499V186.371C131.938 185.875 132.135 185.4 132.485 185.05C132.836 184.7 133.311 184.503 133.806 184.502H172.058C172.554 184.503 173.029 184.7 173.379 185.05C173.729 185.4 173.926 185.875 173.927 186.371V192.499C173.926 192.994 173.729 193.469 173.379 193.82C173.029 194.17 172.554 194.367 172.058 194.368Z" fill="#FF0036"/>
<path d="M254.277 60.9804L189.648 94.0371L190.075 94.8716L254.704 61.8149L254.277 60.9804Z" fill="#E5E5E5"/>
<path d="M190.072 180.749L189.646 181.584L254.279 214.631L254.706 213.796L190.072 180.749Z" fill="#E5E5E5"/>
<path d="M351 49.2187C350.998 58.2891 348.491 67.1827 343.757 74.9194C339.022 82.6562 332.243 88.9356 324.167 93.0656C323.75 93.2812 323.328 93.4922 322.906 93.689C322.658 93.8109 322.409 93.9234 322.161 94.0359C321.551 94.3125 320.933 94.5797 320.309 94.8281C318.091 95.7349 315.808 96.473 313.479 97.0359C313.151 97.1203 312.813 97.1953 312.481 97.2703C311.641 97.4578 310.796 97.6203 309.944 97.7578C305.296 98.5362 300.561 98.6467 295.881 98.0859C294.911 97.9734 293.948 97.8297 292.993 97.6547C292.539 97.5703 292.084 97.4812 291.634 97.3875C291.573 97.3734 291.512 97.3594 291.451 97.35C289.836 97.01 288.24 96.5844 286.67 96.075C285.826 95.8031 284.987 95.5125 284.166 95.1938C283.74 95.0297 283.318 94.8609 282.901 94.6875C282.694 94.6031 282.488 94.5141 282.287 94.425C274.128 90.9082 267.074 85.2492 261.871 78.0481C256.669 70.847 253.512 62.3722 252.736 53.5225C251.96 44.6729 253.594 35.7781 257.464 27.7816C261.333 19.7851 267.295 12.9848 274.717 8.10205C282.139 3.21925 290.744 0.435899 299.62 0.0471591C308.496 -0.34158 317.311 1.67879 325.131 5.894C332.952 10.1092 339.485 16.3621 344.04 23.9897C348.594 31.6173 350.999 40.3351 351 49.2187Z" fill="#F1F1F1"/>
<path d="M351 205.781C350.989 213.712 349.067 221.523 345.398 228.554C341.728 235.585 336.419 241.629 329.919 246.173C329.798 246.258 329.676 246.342 329.554 246.422C328.841 246.914 328.115 247.388 327.369 247.833C326.896 248.123 326.413 248.405 325.93 248.681C325.349 249.009 324.763 249.323 324.168 249.628C324.032 249.698 323.896 249.769 323.755 249.834C323.258 250.088 322.757 250.331 322.246 250.561C322.218 250.575 322.189 250.584 322.161 250.598C321.993 250.673 321.819 250.753 321.641 250.828C320.539 251.316 319.414 251.766 318.266 252.169C318.186 252.202 318.102 252.23 318.017 252.258C315.387 253.182 312.682 253.872 309.931 254.32C309.41 254.414 308.886 254.489 308.36 254.559C308.276 254.573 308.187 254.588 308.103 254.597C307.385 254.691 306.663 254.766 305.937 254.827C305.852 254.836 305.768 254.841 305.684 254.845C305.14 254.892 304.592 254.925 304.038 254.948C303.288 254.981 302.538 255 301.779 255C300.715 255 299.657 254.967 298.605 254.902C297.691 254.841 296.782 254.761 295.882 254.648C295.333 254.583 294.785 254.508 294.245 254.423C293.65 254.334 293.055 254.231 292.469 254.119C292.178 254.063 291.888 254.002 291.597 253.941C291.55 253.931 291.498 253.922 291.452 253.913C290.983 253.814 290.519 253.711 290.059 253.594C288.238 253.154 286.444 252.606 284.687 251.953C284.087 251.728 283.492 251.494 282.901 251.25C282.718 251.175 282.535 251.095 282.357 251.016C282.034 250.88 281.715 250.734 281.396 250.589C281.157 250.481 280.918 250.369 280.679 250.256C280.173 250.022 279.676 249.773 279.179 249.516C278.781 249.314 278.382 249.098 277.993 248.883C277.984 248.878 277.979 248.873 277.97 248.869C270.372 244.671 264.02 238.54 259.556 231.096C255.093 223.652 252.677 215.16 252.555 206.481C252.432 197.803 254.606 189.246 258.857 181.678C263.108 174.111 269.285 167.802 276.761 163.392C284.236 158.981 292.745 156.625 301.425 156.564C310.105 156.502 318.647 158.736 326.184 163.04C333.722 167.344 339.988 173.565 344.346 181.071C348.704 188.577 351 197.102 351 205.781Z" fill="#F1F1F1"/>
<path d="M301.479 40.543C297.939 40.5472 294.546 41.9551 292.043 44.4578C289.54 46.9604 288.132 50.3536 288.128 53.893V63.8539C288.129 64.3293 288.319 64.7849 288.655 65.1206C288.992 65.4563 289.448 65.6448 289.923 65.6445H313.034C313.509 65.6448 313.966 65.4564 314.302 65.1206C314.639 64.7849 314.829 64.3293 314.829 63.8539V53.893C314.825 50.3538 313.417 46.9608 310.914 44.4582C308.411 41.9556 305.018 40.5476 301.479 40.543Z" fill="#2F2E41"/>
<path d="M294.658 82.4535L293.378 76.6879C293.199 75.8685 292.779 75.1212 292.174 74.541C291.635 74.0728 291.004 73.723 290.322 73.5145C290.242 73.4957 290.162 73.477 290.078 73.4629C290.043 73.4529 290.007 73.445 289.97 73.4394C289.396 73.3396 288.807 73.3596 288.241 73.4983C287.675 73.6369 287.143 73.8912 286.68 74.2452C286.217 74.5992 285.832 75.0451 285.55 75.5551C285.267 76.065 285.093 76.6278 285.039 77.2082L283.951 84.0098L282.287 94.4254C282.489 94.5145 282.695 94.6035 282.901 94.6879C283.319 94.8613 283.74 95.0301 284.167 95.1942C284.987 95.5129 285.826 95.8035 286.67 96.0754C288.24 96.5848 289.836 97.0104 291.452 97.3504C291.513 97.3598 291.574 97.3738 291.634 97.3879C292.085 97.4816 292.539 97.5707 292.994 97.6551L295.268 85.2004L294.658 82.4535Z" fill="#2F2E41"/>
<path d="M298.185 65.4937C303.59 65.4937 307.972 61.112 307.972 55.7068C307.972 50.3017 303.59 45.9199 298.185 45.9199C292.779 45.9199 288.397 50.3017 288.397 55.7068C288.397 61.112 292.779 65.4937 298.185 65.4937Z" fill="#FFB7B7"/>
<path d="M308.763 88.4631L306.673 71.9818L306.232 68.4896H306.227L306.03 68.4849C305.365 68.4615 304.718 68.4568 304.08 68.4803C300.168 68.4969 296.33 69.5585 292.965 71.5552C292.085 72.0925 291.245 72.6941 290.453 73.3552L290.415 73.3928L290.322 73.5146L286.998 77.7896L286.993 77.874L286.67 96.0756C288.24 96.585 289.836 97.0106 291.451 97.3506C291.512 97.3599 291.573 97.374 291.634 97.3881C292.084 97.4818 292.539 97.5708 292.994 97.6552C293.95 97.8287 294.913 97.9724 295.881 98.0865C300.561 98.6472 305.296 98.5367 309.945 97.7584L308.763 88.4631Z" fill="#FF0036"/>
<path d="M312.185 72.0895C310.645 70.2735 308.555 69.0095 306.231 68.4894H306.227C305.607 68.35 304.976 68.2668 304.342 68.241L304.178 68.2363L304.08 68.4801L296.204 87.4644L294.934 82.3926L292.965 71.5551L292.951 71.4754L292.656 71.6488C291.743 72.1743 290.88 72.7815 290.077 73.4629C286.883 76.16 284.751 79.9048 284.063 84.0285C283.862 85.2504 283.788 86.4898 283.842 87.7269L284.166 95.1941C284.986 95.5129 285.825 95.8035 286.669 96.0754C288.239 96.5848 289.835 97.0104 291.451 97.3504C291.512 97.3597 291.573 97.3738 291.634 97.3879C292.084 97.4816 292.538 97.5707 292.993 97.6551C293.949 97.8285 294.912 97.9722 295.881 98.0863C300.56 98.647 305.296 98.5365 309.944 97.7582C310.797 97.6222 311.643 97.4597 312.48 97.2707C312.813 97.1957 313.15 97.1207 313.479 97.0363L312.771 94.9504L314.646 80.4707C314.838 78.9794 314.718 77.4646 314.294 76.0219C313.871 74.5793 313.152 73.2403 312.185 72.0895Z" fill="#2F2E41"/>
<path d="M314.51 72.4926C314.175 71.4608 313.455 70.5979 312.5 70.0837C311.544 69.5694 310.428 69.4433 309.382 69.7317C309.213 69.775 309.047 69.8298 308.885 69.8957C308.107 70.2127 307.442 70.7545 306.975 71.4518C306.507 72.1491 306.258 72.9702 306.26 73.8098L306.279 82.5707L308.763 88.4629L312.48 97.2707C312.813 97.1957 313.151 97.1207 313.479 97.0364C315.808 96.4734 318.091 95.7353 320.309 94.8285C320.932 94.5801 321.551 94.3129 322.161 94.0363C322.409 93.9238 322.658 93.8113 322.906 93.6895L314.51 72.4926Z" fill="#2F2E41"/>
<path d="M297.526 44.127H295.53C292.729 44.1279 290.044 45.241 288.064 47.2215C286.084 49.202 284.972 51.8877 284.973 54.6879V54.8848H299.106L299.252 52.8551L299.974 54.8848H302.149L302.439 50.8629L303.874 54.8848H308.083V54.6879C308.081 51.8885 306.968 49.2045 304.989 47.2247C303.01 45.2448 300.326 44.1308 297.526 44.127Z" fill="#2F2E41"/>
<path d="M293.237 224.006C291.589 223.888 289.933 224.101 288.367 224.632C286.802 225.163 285.359 226.001 284.122 227.097C282.885 228.194 281.88 229.527 281.165 231.017C280.451 232.508 280.042 234.126 279.962 235.777L279.179 249.516C279.676 249.773 280.173 250.022 280.679 250.256C280.918 250.369 281.157 250.481 281.396 250.589C281.715 250.734 282.033 250.88 282.357 251.016C282.535 251.095 282.718 251.175 282.901 251.25C283.491 251.494 284.087 251.728 284.687 251.953C286.443 252.606 288.237 253.154 290.059 253.594C290.518 253.711 290.982 253.814 291.451 253.913C291.498 253.922 291.55 253.931 291.597 253.941C291.887 254.002 292.178 254.063 292.468 254.119L293.462 224.02L293.237 224.006Z" fill="#2F2E41"/>
<path d="M305.936 254.826C306.663 254.765 307.384 254.69 308.102 254.596C308.186 254.587 308.275 254.573 308.36 254.559C308.885 254.489 309.41 254.414 309.93 254.32C309.972 253.05 309.958 252.136 309.958 252.023L312.288 227.746L307.431 224.915L306.484 224.362L291.802 223.889L291.68 223.992L284.63 230.104L282.356 251.015C282.535 251.095 282.717 251.175 282.9 251.25C283.491 251.493 284.086 251.728 284.686 251.953C286.443 252.606 288.237 253.154 290.058 253.593C290.518 253.711 290.982 253.814 291.451 253.912C291.498 253.921 291.549 253.931 291.596 253.94C291.887 254.001 292.177 254.062 292.468 254.118C293.054 254.231 293.649 254.334 294.245 254.423C294.784 254.507 295.332 254.582 295.881 254.648C296.781 254.761 297.69 254.84 298.604 254.901C299.654 254.967 300.712 255 301.778 255C302.537 255 303.287 254.981 304.037 254.948C304.591 254.925 305.139 254.892 305.683 254.845L305.936 254.826Z" fill="#2F2E41"/>
<path d="M315.757 229.837L307.441 224.756L307.432 224.915L305.937 254.826C306.663 254.765 307.385 254.69 308.102 254.597C308.187 254.587 308.276 254.573 308.36 254.559C308.885 254.489 309.41 254.414 309.93 254.32C312.681 253.871 315.387 253.181 318.017 252.257C318.101 252.229 318.186 252.201 318.265 252.168L318.856 235.396C318.897 234.275 318.63 233.164 318.083 232.184C317.537 231.204 316.733 230.392 315.757 229.837Z" fill="#2F2E41"/>
<path d="M297.505 220.652C303.203 220.652 307.822 216.034 307.822 210.336C307.822 204.638 303.203 200.02 297.505 200.02C291.807 200.02 287.188 204.638 287.188 210.336C287.188 216.034 291.807 220.652 297.505 220.652Z" fill="#9F616A"/>
<path d="M293.774 195.102C304.164 192.106 307.114 200.717 307.114 200.717C312.122 204.04 308.986 208.205 308.986 208.205C310.25 208.486 307.723 215.881 306.881 215.694C306.431 215.594 305.275 216.974 304.295 218.282C303.958 218.282 303.623 218.314 303.293 218.378L305.195 211.341C305.195 211.341 298.783 210.359 296.817 207.27C294.936 204.315 288.744 203.382 286.982 205.356C286.878 204.788 286.664 204.246 286.354 203.76C286.113 203.391 285.798 203.076 285.43 202.834C286.988 196.213 293.774 195.102 293.774 195.102Z" fill="#2F2E41"/>
<path opacity="0.2" d="M305.684 254.846C305.14 254.893 304.591 254.925 304.038 254.949L305.482 247.018V247.566L305.684 254.846Z" fill="black"/>
</g>
<defs>
<clipPath id="clip0">
<rect width="351" height="255" fill="white"/>
</clipPath>
</defs>
</svg>
