<svg width="251" height="261" viewBox="0 0 251 261" fill="none" xmlns="http://www.w3.org/2000/svg">
<g clip-path="url(#clip0)">
<g opacity="0.7">
<path opacity="0.7" d="M208.083 125.104L125.284 105.197V261.002L208.083 239.364V125.104Z" fill="url(#paint0_linear)"/>
<g opacity="0.1">
<path opacity="0.1" d="M208.083 125.104L125.284 105.197V261.002L208.083 239.364V125.104Z" fill="url(#paint1_linear)"/>
</g>
<path opacity="0.7" d="M42.4814 125.104L125.284 105.197V261.002L42.4814 239.794V125.104Z" fill="url(#paint2_linear)"/>
<g opacity="0.17">
<path opacity="0.17" d="M42.4814 125.104L125.284 105.197V261.002L42.4814 239.794V125.104Z" fill="url(#paint3_linear)"/>
</g>
<path opacity="0.7" d="M125.284 105.196L168.2 69.707L251 90.9148L208.083 125.103L125.284 105.196Z" fill="url(#paint4_linear)"/>
<path opacity="0.7" d="M0 91.3449L42.4819 125.103L125.285 105.196L83.2335 69.707L0 91.3449Z" fill="url(#paint5_linear)"/>
<g opacity="0.05">
<path opacity="0.05" d="M0 91.3449L42.4819 125.103L125.285 105.196L83.2335 69.707L0 91.3449Z" fill="url(#paint6_linear)"/>
</g>
<g opacity="0.5">
<path opacity="0.5" d="M123.79 87.1875H65.4099C64.5601 87.1875 63.8711 87.8753 63.8711 88.7238V142.262C63.8711 143.111 64.5601 143.798 65.4099 143.798H123.79C124.64 143.798 125.328 143.111 125.328 142.262V88.7238C125.328 87.8753 124.64 87.1875 123.79 87.1875Z" fill="url(#paint7_linear)"/>
</g>
<path opacity="0.7" d="M123.124 87.623H66.1599C65.3101 87.623 64.6211 88.3109 64.6211 89.1593V141.325C64.6211 142.174 65.3101 142.862 66.1599 142.862H123.124C123.974 142.862 124.663 142.174 124.663 141.325V89.1593C124.663 88.3109 123.974 87.623 123.124 87.623Z" fill="url(#paint8_linear)"/>
<path opacity="0.7" d="M77.8337 96.7227H70.7859C69.936 96.7227 69.2471 97.4105 69.2471 98.259V104.285C69.2471 105.133 69.936 105.821 70.7859 105.821H77.8337C78.6836 105.821 79.3726 105.133 79.3726 104.285V98.259C79.3726 97.4105 78.6836 96.7227 77.8337 96.7227Z" fill="url(#paint9_linear)"/>
<path opacity="0.7" d="M122.388 96.7227H82.6827C82.5317 96.7227 82.4092 96.8449 82.4092 96.9958V97.4601C82.4092 97.6109 82.5317 97.7332 82.6827 97.7332H122.388C122.539 97.7332 122.661 97.6109 122.661 97.4601V96.9958C122.661 96.8449 122.539 96.7227 122.388 96.7227Z" fill="url(#paint10_linear)"/>
<path opacity="0.7" d="M122.388 99.7539H82.6827C82.5317 99.7539 82.4092 99.8762 82.4092 100.027V100.491C82.4092 100.642 82.5317 100.764 82.6827 100.764H122.388C122.539 100.764 122.661 100.642 122.661 100.491V100.027C122.661 99.8762 122.539 99.7539 122.388 99.7539Z" fill="url(#paint11_linear)"/>
<path opacity="0.7" d="M122.388 110.764H68.5089C68.3578 110.764 68.2354 110.886 68.2354 111.037V111.501C68.2354 111.652 68.3578 111.774 68.5089 111.774H122.388C122.54 111.774 122.662 111.652 122.662 111.501V111.037C122.662 110.886 122.54 110.764 122.388 110.764Z" fill="url(#paint12_linear)"/>
<path opacity="0.7" d="M122.388 113.795H68.5089C68.3578 113.795 68.2354 113.917 68.2354 114.068V114.532C68.2354 114.683 68.3578 114.805 68.5089 114.805H122.388C122.54 114.805 122.662 114.683 122.662 114.532V114.068C122.662 113.917 122.54 113.795 122.388 113.795Z" fill="url(#paint13_linear)"/>
<path opacity="0.7" d="M122.388 117.838H68.5089C68.3578 117.838 68.2354 117.96 68.2354 118.111V118.575C68.2354 118.726 68.3578 118.848 68.5089 118.848H122.388C122.54 118.848 122.662 118.726 122.662 118.575V118.111C122.662 117.96 122.54 117.838 122.388 117.838Z" fill="url(#paint14_linear)"/>
<path opacity="0.7" d="M99.3505 120.873H68.5089C68.3578 120.873 68.2354 120.995 68.2354 121.146V121.61C68.2354 121.761 68.3578 121.884 68.5089 121.884H99.3505C99.5016 121.884 99.624 121.761 99.624 121.61V121.146C99.624 120.995 99.5016 120.873 99.3505 120.873Z" fill="url(#paint15_linear)"/>
<path opacity="0.7" d="M122.388 124.906H68.5089C68.3578 124.906 68.2354 125.029 68.2354 125.179V125.644C68.2354 125.795 68.3578 125.917 68.5089 125.917H122.388C122.54 125.917 122.662 125.795 122.662 125.644V125.179C122.662 125.029 122.54 124.906 122.388 124.906Z" fill="url(#paint16_linear)"/>
<path opacity="0.7" d="M122.388 127.936H68.5089C68.3578 127.936 68.2354 128.058 68.2354 128.209V128.673C68.2354 128.824 68.3578 128.946 68.5089 128.946H122.388C122.54 128.946 122.662 128.824 122.662 128.673V128.209C122.662 128.058 122.54 127.936 122.388 127.936Z" fill="url(#paint17_linear)"/>
<path opacity="0.7" d="M122.388 131.982H68.5089C68.3578 131.982 68.2354 132.105 68.2354 132.256V132.72C68.2354 132.871 68.3578 132.993 68.5089 132.993H122.388C122.54 132.993 122.662 132.871 122.662 132.72V132.256C122.662 132.105 122.54 131.982 122.388 131.982Z" fill="url(#paint18_linear)"/>
<path opacity="0.7" d="M99.3505 135.016H68.5089C68.3578 135.016 68.2354 135.138 68.2354 135.289V135.753C68.2354 135.904 68.3578 136.026 68.5089 136.026H99.3505C99.5016 136.026 99.624 135.904 99.624 135.753V135.289C99.624 135.138 99.5016 135.016 99.3505 135.016Z" fill="url(#paint19_linear)"/>
<g opacity="0.5">
<path opacity="0.5" d="M133.064 100.266H74.6843C73.8345 100.266 73.1455 100.953 73.1455 101.802V155.34C73.1455 156.189 73.8345 156.877 74.6843 156.877H133.064C133.914 156.877 134.603 156.189 134.603 155.34V101.802C134.603 100.953 133.914 100.266 133.064 100.266Z" fill="url(#paint20_linear)"/>
</g>
<path opacity="0.7" d="M132.397 100.707H75.4334C74.5835 100.707 73.8945 101.395 73.8945 102.243V154.409C73.8945 155.258 74.5835 155.945 75.4334 155.945H132.397C133.247 155.945 133.936 155.258 133.936 154.409V102.243C133.936 101.395 133.247 100.707 132.397 100.707Z" fill="url(#paint21_linear)"/>
<path opacity="0.7" d="M87.1081 109.805H80.0603C79.2104 109.805 78.5215 110.493 78.5215 111.341V117.367C78.5215 118.215 79.2104 118.903 80.0603 118.903H87.1081C87.958 118.903 88.647 118.215 88.647 117.367V111.341C88.647 110.493 87.958 109.805 87.1081 109.805Z" fill="url(#paint22_linear)"/>
<path opacity="0.7" d="M131.665 109.805H91.9601C91.809 109.805 91.6865 109.927 91.6865 110.078V110.542C91.6865 110.693 91.809 110.815 91.9601 110.815H131.665C131.816 110.815 131.939 110.693 131.939 110.542V110.078C131.939 109.927 131.816 109.805 131.665 109.805Z" fill="url(#paint23_linear)"/>
<path opacity="0.7" d="M131.665 112.836H91.9601C91.809 112.836 91.6865 112.958 91.6865 113.109V113.573C91.6865 113.724 91.809 113.846 91.9601 113.846H131.665C131.816 113.846 131.939 113.724 131.939 113.573V113.109C131.939 112.958 131.816 112.836 131.665 112.836Z" fill="url(#paint24_linear)"/>
<path opacity="0.7" d="M131.662 123.844H77.7824C77.6313 123.844 77.5088 123.966 77.5088 124.117V124.581C77.5088 124.732 77.6313 124.854 77.7824 124.854H131.662C131.813 124.854 131.935 124.732 131.935 124.581V124.117C131.935 123.966 131.813 123.844 131.662 123.844Z" fill="url(#paint25_linear)"/>
<path opacity="0.7" d="M131.662 126.879H77.7824C77.6313 126.879 77.5088 127.001 77.5088 127.152V127.616C77.5088 127.767 77.6313 127.889 77.7824 127.889H131.662C131.813 127.889 131.935 127.767 131.935 127.616V127.152C131.935 127.001 131.813 126.879 131.662 126.879Z" fill="url(#paint26_linear)"/>
<path opacity="0.7" d="M131.662 130.922H77.7824C77.6313 130.922 77.5088 131.044 77.5088 131.195V131.659C77.5088 131.81 77.6313 131.932 77.7824 131.932H131.662C131.813 131.932 131.935 131.81 131.935 131.659V131.195C131.935 131.044 131.813 130.922 131.662 130.922Z" fill="url(#paint27_linear)"/>
<path opacity="0.7" d="M108.624 133.953H77.7824C77.6313 133.953 77.5088 134.075 77.5088 134.226V134.691C77.5088 134.841 77.6313 134.964 77.7824 134.964H108.624C108.775 134.964 108.897 134.841 108.897 134.691V134.226C108.897 134.075 108.775 133.953 108.624 133.953Z" fill="url(#paint28_linear)"/>
<path opacity="0.7" d="M131.662 137.988H77.7824C77.6313 137.988 77.5088 138.111 77.5088 138.261V138.726C77.5088 138.877 77.6313 138.999 77.7824 138.999H131.662C131.813 138.999 131.935 138.877 131.935 138.726V138.261C131.935 138.111 131.813 137.988 131.662 137.988Z" fill="url(#paint29_linear)"/>
<path opacity="0.7" d="M131.662 141.02H77.7824C77.6313 141.02 77.5088 141.142 77.5088 141.293V141.757C77.5088 141.908 77.6313 142.03 77.7824 142.03H131.662C131.813 142.03 131.935 141.908 131.935 141.757V141.293C131.935 141.142 131.813 141.02 131.662 141.02Z" fill="url(#paint30_linear)"/>
<path opacity="0.7" d="M131.662 145.064H77.7824C77.6313 145.064 77.5088 145.187 77.5088 145.338V145.802C77.5088 145.953 77.6313 146.075 77.7824 146.075H131.662C131.813 146.075 131.935 145.953 131.935 145.802V145.338C131.935 145.187 131.813 145.064 131.662 145.064Z" fill="url(#paint31_linear)"/>
<path opacity="0.7" d="M108.624 148.098H77.7824C77.6313 148.098 77.5088 148.22 77.5088 148.371V148.835C77.5088 148.986 77.6313 149.108 77.7824 149.108H108.624C108.775 149.108 108.897 148.986 108.897 148.835V148.371C108.897 148.22 108.775 148.098 108.624 148.098Z" fill="url(#paint32_linear)"/>
<g opacity="0.5">
<path opacity="0.5" d="M162.134 107.592H108.884V170.054H162.134V107.592Z" fill="url(#paint33_linear)"/>
</g>
<path opacity="0.7" d="M161.002 108.6H110.521V168.676H161.002V108.6Z" fill="url(#paint34_linear)"/>
<g opacity="0.5">
<path opacity="0.5" d="M138.511 118.152V116.643H133.023V118.152H129.162V125.563H142.362V118.152H138.511ZM133.707 117.185H137.81V118.145H133.707V117.185Z" fill="url(#paint35_linear)"/>
</g>
<path opacity="0.7" d="M141.805 118.402H129.72V125.189H141.805V118.402Z" fill="url(#paint36_linear)"/>
<path opacity="0.7" d="M133.245 117.02V118.781H133.874V117.525H137.65V118.781H138.279V117.02H133.245Z" fill="url(#paint37_linear)"/>
<path opacity="0.7" d="M153.575 134.957H118.076V136.466H153.575V134.957Z" fill="url(#paint38_linear)"/>
<path opacity="0.7" d="M153.575 144.885H118.076V146.394H153.575V144.885Z" fill="url(#paint39_linear)"/>
<path opacity="0.7" d="M153.575 147.523H118.076V149.032H153.575V147.523Z" fill="url(#paint40_linear)"/>
<path opacity="0.7" d="M133.058 142.244H118.076V143.753H133.058V142.244Z" fill="url(#paint41_linear)"/>
<g opacity="0.6">
<path opacity="0.6" d="M153.575 142.244H142.372V143.753H153.575V142.244Z" fill="url(#paint42_linear)"/>
</g>
<path opacity="0.7" d="M141.74 153.682H130.537V155.191H141.74V153.682Z" fill="url(#paint43_linear)"/>
<path opacity="0.7" d="M42.4814 125.104V239.793L125.284 261.001V147.178L42.4814 125.104Z" fill="url(#paint44_linear)"/>
<path opacity="0.7" d="M208.083 239.363L125.284 261.001V147.178L208.083 125.104V239.363Z" fill="url(#paint45_linear)"/>
<g opacity="0.07">
<path opacity="0.07" d="M208.083 239.363L125.284 261.001V147.178L208.083 125.104V239.363Z" fill="url(#paint46_linear)"/>
</g>
<g opacity="0.07">
<path opacity="0.07" d="M175.136 201.276V238.929L208.084 229.84V192.188L175.136 201.276Z" fill="url(#paint47_linear)"/>
</g>
<path opacity="0.7" d="M189.17 115.537H164.75V138.961H189.17V115.537Z" fill="url(#paint48_linear)"/>
<path opacity="0.7" d="M188.786 116.111H165.133V138.483H188.786V116.111Z" fill="url(#paint49_linear)"/>
<g opacity="0.5">
<path opacity="0.5" d="M179.051 120.033V118.893H174.869V120.04H171.938V125.68H181.982V120.033H179.051ZM175.392 119.302H178.531V120.033H175.392V119.302Z" fill="url(#paint50_linear)"/>
</g>
<g opacity="0.6">
<path opacity="0.6" d="M181.554 120.225H172.362V125.387H181.554V120.225Z" fill="url(#paint51_linear)"/>
</g>
<g opacity="0.6">
<path opacity="0.6" d="M175.044 119.17V120.512H175.526V119.556H178.399V120.512H178.877V119.17H175.044Z" fill="url(#paint52_linear)"/>
</g>
<g opacity="0.6">
<path opacity="0.6" d="M181.41 129.402H172.889V130.549H181.41V129.402Z" fill="url(#paint53_linear)"/>
</g>
<path opacity="0.7" d="M184.239 131.504H169.682V132.651H184.239V131.504Z" fill="url(#paint54_linear)"/>
<g opacity="0.5">
<path opacity="0.5" d="M138.498 43.9355H106.859V69.8819H138.498V43.9355Z" fill="url(#paint55_linear)"/>
</g>
<path opacity="0.7" d="M138.07 44.4277H107.229V69.4523H138.07V44.4277Z" fill="url(#paint56_linear)"/>
<path opacity="0.7" d="M138.07 44.4277H107.229V50.0096H138.07V44.4277Z" fill="url(#paint57_linear)"/>
<g opacity="0.1">
<path opacity="0.1" d="M138.07 44.4277H107.229V50.0096H138.07V44.4277Z" fill="url(#paint58_linear)"/>
</g>
<path opacity="0.7" d="M135.615 52.0332H109.688V55.2833H135.615V52.0332Z" fill="url(#paint59_linear)"/>
<path opacity="0.7" d="M128.612 57.7383H109.688V58.841H128.612V57.7383Z" fill="url(#paint60_linear)"/>
<path opacity="0.7" d="M121.974 59.6406H109.688V60.7433H121.974V59.6406Z" fill="url(#paint61_linear)"/>
<path opacity="0.7" d="M125.907 61.541H109.688V62.6437H125.907V61.541Z" fill="url(#paint62_linear)"/>
<path opacity="0.7" d="M128.612 63.4395H109.688V64.5422H128.612V63.4395Z" fill="url(#paint63_linear)"/>
<path opacity="0.7" d="M116.014 65.3418H109.688V66.4445H116.014V65.3418Z" fill="url(#paint64_linear)"/>
<g opacity="0.5">
<path opacity="0.5" d="M192.593 63.4199H153.377V95.5763H192.593V63.4199Z" fill="url(#paint65_linear)"/>
</g>
<path opacity="0.7" d="M192.063 64.0273H153.835V95.0435H192.063V64.0273Z" fill="url(#paint66_linear)"/>
<path opacity="0.7" d="M192.063 64.0273H153.835V70.9441H192.063V64.0273Z" fill="url(#paint67_linear)"/>
<path opacity="0.7" d="M189.013 73.4531H156.879V77.4816H189.013V73.4531Z" fill="url(#paint68_linear)"/>
<path opacity="0.7" d="M180.334 80.5234H156.879V81.8925H180.334V80.5234Z" fill="url(#paint69_linear)"/>
<path opacity="0.7" d="M172.11 82.8789H156.879V84.2479H172.11V82.8789Z" fill="url(#paint70_linear)"/>
<path opacity="0.7" d="M176.983 85.2383H156.879V86.6073H176.983V85.2383Z" fill="url(#paint71_linear)"/>
<path opacity="0.7" d="M180.334 87.5938H156.879V88.9627H180.334V87.5938Z" fill="url(#paint72_linear)"/>
<path opacity="0.7" d="M164.724 89.9492H156.879V91.3182H164.724V89.9492Z" fill="url(#paint73_linear)"/>
<path opacity="0.7" d="M167.691 74.8223H158.554V76.0377H167.691V74.8223Z" fill="url(#paint74_linear)"/>
<g opacity="0.1">
<path opacity="0.1" d="M41.4014 184.613L87.7851 196.299L125.066 166.003V147.393L42.2665 126.619L41.4014 184.613Z" fill="url(#paint75_linear)"/>
</g>
<g opacity="0.1">
<path opacity="0.1" d="M208.733 184.613L162.346 196.299L125.065 166.003V147.393L207.865 126.619L208.733 184.613Z" fill="url(#paint76_linear)"/>
</g>
<path opacity="0.7" d="M42.4819 125.104L0 160.162L82.7992 180.936L125.285 147.178L42.4819 125.104Z" fill="url(#paint77_linear)"/>
<path opacity="0.7" d="M208.083 125.104L251 160.162L168.635 180.936L125.284 147.178L208.083 125.104Z" fill="url(#paint78_linear)"/>
<g opacity="0.07">
<path opacity="0.07" d="M208.083 125.104L251 160.162L168.635 180.936L125.284 147.178L208.083 125.104Z" fill="url(#paint79_linear)"/>
</g>
</g>
<path d="M208.234 124.052L126.143 104.312V258.786L208.234 237.332V124.052Z" fill="#535461"/>
<path opacity="0.1" d="M208.234 124.052L126.143 104.312V258.786L208.234 237.332V124.052Z" fill="black"/>
<path d="M44.0547 124.052L126.143 104.312V258.786L44.0547 237.759V124.052Z" fill="#535461"/>
<path opacity="0.17" d="M44.0547 123.369L126.143 103.629V258.785L44.0547 237.758V123.369Z" fill="black"/>
<path d="M125.459 104.994L168.693 69.127L250.785 90.1538L207.55 124.734L125.459 104.994Z" fill="#535461"/>
<path d="M2.61914 91.2622L44.7386 124.733L126.827 104.993L85.138 69.8086L2.61914 91.2622Z" fill="#535461"/>
<path opacity="0.05" d="M1.93555 90.5805L45.0809 124.734L127.169 104.994L84.4544 69.127L1.93555 90.5805Z" fill="black"/>
<g opacity="0.5">
<path opacity="0.5" d="M124.649 86.4551H66.7957C65.9458 86.4551 65.2568 87.1429 65.2568 87.9914V141.045C65.2568 141.893 65.9458 142.581 66.7957 142.581H124.649C125.499 142.581 126.188 141.893 126.188 141.045V87.9914C126.188 87.1429 125.499 86.4551 124.649 86.4551Z" fill="url(#paint80_linear)"/>
</g>
<path d="M123.988 86.8926H67.5408C66.6909 86.8926 66.002 87.5804 66.002 88.4289V140.12C66.002 140.969 66.6909 141.656 67.5408 141.656H123.988C124.838 141.656 125.527 140.969 125.527 140.12V88.4289C125.527 87.5804 124.838 86.8926 123.988 86.8926Z" fill="#F5F5F5"/>
<path d="M79.0891 95.9141H72.1267C71.2768 95.9141 70.5879 96.6019 70.5879 97.4504V103.398C70.5879 104.246 71.2768 104.934 72.1267 104.934H79.0891C79.9389 104.934 80.6279 104.246 80.6279 103.398V97.4504C80.6279 96.6019 79.9389 95.9141 79.0891 95.9141Z" fill="#FF0036"/>
<path d="M123.274 95.9141H83.9142C83.7631 95.9141 83.6406 96.0363 83.6406 96.1872V96.6447C83.6406 96.7955 83.7631 96.9178 83.9142 96.9178H123.274C123.425 96.9178 123.548 96.7955 123.548 96.6447V96.1872C123.548 96.0363 123.425 95.9141 123.274 95.9141Z" fill="#E0E0E0"/>
<path d="M123.274 98.918H83.9142C83.7631 98.918 83.6406 99.0403 83.6406 99.1911V99.6486C83.6406 99.7994 83.7631 99.9217 83.9142 99.9217H123.274C123.425 99.9217 123.548 99.7994 123.548 99.6486V99.1911C123.548 99.0403 123.425 98.918 123.274 98.918Z" fill="#E0E0E0"/>
<path d="M123.274 109.83H69.8595C69.7084 109.83 69.5859 109.952 69.5859 110.103V110.561C69.5859 110.712 69.7084 110.834 69.8595 110.834H123.274C123.425 110.834 123.548 110.712 123.548 110.561V110.103C123.548 109.952 123.425 109.83 123.274 109.83Z" fill="#E0E0E0"/>
<path d="M123.274 112.84H69.8595C69.7084 112.84 69.5859 112.962 69.5859 113.113V113.57C69.5859 113.721 69.7084 113.844 69.8595 113.844H123.274C123.425 113.844 123.548 113.721 123.548 113.57V113.113C123.548 112.962 123.425 112.84 123.274 112.84Z" fill="#E0E0E0"/>
<path d="M123.274 116.848H69.8595C69.7084 116.848 69.5859 116.97 69.5859 117.121V117.578C69.5859 117.729 69.7084 117.851 69.8595 117.851H123.274C123.425 117.851 123.548 117.729 123.548 117.578V117.121C123.548 116.97 123.425 116.848 123.274 116.848Z" fill="#E0E0E0"/>
<path d="M100.434 119.855H69.8595C69.7084 119.855 69.5859 119.978 69.5859 120.129V120.586C69.5859 120.737 69.7084 120.859 69.8595 120.859H100.434C100.585 120.859 100.708 120.737 100.708 120.586V120.129C100.708 119.978 100.585 119.855 100.434 119.855Z" fill="#E0E0E0"/>
<path d="M123.274 123.854H69.8595C69.7084 123.854 69.5859 123.976 69.5859 124.127V124.584C69.5859 124.735 69.7084 124.857 69.8595 124.857H123.274C123.425 124.857 123.548 124.735 123.548 124.584V124.127C123.548 123.976 123.425 123.854 123.274 123.854Z" fill="#E0E0E0"/>
<path d="M123.274 126.861H69.8595C69.7084 126.861 69.5859 126.984 69.5859 127.134V127.592C69.5859 127.743 69.7084 127.865 69.8595 127.865H123.274C123.425 127.865 123.548 127.743 123.548 127.592V127.134C123.548 126.984 123.425 126.861 123.274 126.861Z" fill="#E0E0E0"/>
<path d="M123.274 130.869H69.8595C69.7084 130.869 69.5859 130.991 69.5859 131.142V131.6C69.5859 131.751 69.7084 131.873 69.8595 131.873H123.274C123.425 131.873 123.548 131.751 123.548 131.6V131.142C123.548 130.991 123.425 130.869 123.274 130.869Z" fill="#E0E0E0"/>
<path d="M100.434 133.877H69.8595C69.7084 133.877 69.5859 133.999 69.5859 134.15V134.608C69.5859 134.758 69.7084 134.881 69.8595 134.881H100.434C100.585 134.881 100.708 134.758 100.708 134.608V134.15C100.708 133.999 100.585 133.877 100.434 133.877Z" fill="#E0E0E0"/>
<g opacity="0.5">
<path opacity="0.5" d="M133.844 99.4258H75.991C75.1411 99.4258 74.4521 100.114 74.4521 100.962V154.016C74.4521 154.864 75.1411 155.552 75.991 155.552H133.844C134.694 155.552 135.383 154.864 135.383 154.016V100.962C135.383 100.114 134.694 99.4258 133.844 99.4258Z" fill="url(#paint81_linear)"/>
</g>
<path d="M133.184 99.8633H76.7361C75.8862 99.8633 75.1973 100.551 75.1973 101.4V153.091C75.1973 153.939 75.8862 154.627 76.7361 154.627H133.184C134.034 154.627 134.723 153.939 134.723 153.091V101.4C134.723 100.551 134.034 99.8633 133.184 99.8633Z" fill="white"/>
<path d="M88.2844 108.883H81.322C80.4722 108.883 79.7832 109.571 79.7832 110.419V116.366C79.7832 117.215 80.4722 117.903 81.322 117.903H88.2844C89.1342 117.903 89.8232 117.215 89.8232 116.366V110.419C89.8232 109.571 89.1342 108.883 88.2844 108.883Z" fill="#FF0036"/>
<path d="M132.469 108.883H93.1095C92.9584 108.883 92.8359 109.005 92.8359 109.156V109.613C92.8359 109.764 92.9584 109.887 93.1095 109.887H132.469C132.62 109.887 132.743 109.764 132.743 109.613V109.156C132.743 109.005 132.62 108.883 132.469 108.883Z" fill="#E0E0E0"/>
<path d="M132.469 111.887H93.1095C92.9584 111.887 92.8359 112.009 92.8359 112.16V112.617C92.8359 112.768 92.9584 112.89 93.1095 112.89H132.469C132.62 112.89 132.743 112.768 132.743 112.617V112.16C132.743 112.009 132.62 111.887 132.469 111.887Z" fill="#E0E0E0"/>
<path d="M132.469 122.803H79.0548C78.9037 122.803 78.7812 122.925 78.7812 123.076V123.533C78.7812 123.684 78.9037 123.806 79.0548 123.806H132.469C132.62 123.806 132.743 123.684 132.743 123.533V123.076C132.743 122.925 132.62 122.803 132.469 122.803Z" fill="#E0E0E0"/>
<path d="M132.469 125.809H79.0548C78.9037 125.809 78.7812 125.931 78.7812 126.082V126.539C78.7812 126.69 78.9037 126.812 79.0548 126.812H132.469C132.62 126.812 132.743 126.69 132.743 126.539V126.082C132.743 125.931 132.62 125.809 132.469 125.809Z" fill="#E0E0E0"/>
<path d="M132.469 129.816H79.0548C78.9037 129.816 78.7812 129.939 78.7812 130.09V130.547C78.7812 130.698 78.9037 130.82 79.0548 130.82H132.469C132.62 130.82 132.743 130.698 132.743 130.547V130.09C132.743 129.939 132.62 129.816 132.469 129.816Z" fill="#E0E0E0"/>
<path d="M109.63 132.824H79.0548C78.9037 132.824 78.7812 132.946 78.7812 133.097V133.555C78.7812 133.706 78.9037 133.828 79.0548 133.828H109.63C109.781 133.828 109.903 133.706 109.903 133.555V133.097C109.903 132.946 109.781 132.824 109.63 132.824Z" fill="#E0E0E0"/>
<path d="M132.469 136.822H79.0548C78.9037 136.822 78.7812 136.945 78.7812 137.095V137.553C78.7812 137.704 78.9037 137.826 79.0548 137.826H132.469C132.62 137.826 132.743 137.704 132.743 137.553V137.095C132.743 136.945 132.62 136.822 132.469 136.822Z" fill="#E0E0E0"/>
<path d="M132.469 139.83H79.0548C78.9037 139.83 78.7812 139.952 78.7812 140.103V140.561C78.7812 140.712 78.9037 140.834 79.0548 140.834H132.469C132.62 140.834 132.743 140.712 132.743 140.561V140.103C132.743 139.952 132.62 139.83 132.469 139.83Z" fill="#E0E0E0"/>
<path d="M132.469 143.838H79.0548C78.9037 143.838 78.7812 143.96 78.7812 144.111V144.568C78.7812 144.719 78.9037 144.842 79.0548 144.842H132.469C132.62 144.842 132.743 144.719 132.743 144.568V144.111C132.743 143.96 132.62 143.838 132.469 143.838Z" fill="#E0E0E0"/>
<path d="M109.63 146.846H79.0548C78.9037 146.846 78.7812 146.968 78.7812 147.119V147.576C78.7812 147.727 78.9037 147.849 79.0548 147.849H109.63C109.781 147.849 109.903 147.727 109.903 147.576V147.119C109.903 146.968 109.781 146.846 109.63 146.846Z" fill="#E0E0E0"/>
<g opacity="0.5">
<path opacity="0.5" d="M162.681 106.691H109.886V168.618H162.681V106.691Z" fill="url(#paint82_linear)"/>
</g>
<path d="M161.56 107.688H111.511V167.248H161.56V107.688Z" fill="white"/>
<g opacity="0.5">
<path opacity="0.5" d="M139.261 117.159V115.66H133.807V117.159H129.99V124.509H143.077V117.159H139.261ZM134.473 116.206H138.577V117.159H134.473V116.206Z" fill="url(#paint83_linear)"/>
</g>
<path d="M142.526 117.406H130.544V124.135H142.526V117.406Z" fill="#FF0036"/>
<path d="M134.039 116.035V117.78H134.661V116.534H138.406V117.78H139.032V116.035H134.039Z" fill="#FF0036"/>
<path d="M154.194 133.818H118.999V135.314H154.194V133.818Z" fill="#E0E0E0"/>
<path d="M154.194 143.66H118.999V145.156H154.194V143.66Z" fill="#E0E0E0"/>
<path d="M154.194 146.279H118.999V147.775H154.194V146.279Z" fill="#E0E0E0"/>
<path d="M133.85 141.045H118.999V142.54H133.85V141.045Z" fill="#E0E0E0"/>
<path opacity="0.6" d="M154.194 141.045H143.087V142.54H154.194V141.045Z" fill="#3AD29F"/>
<path d="M142.461 152.385H131.354V153.88H142.461V152.385Z" fill="#FF0036"/>
<path d="M44.0547 124.051V237.757L126.143 258.784L127.251 145.934L44.0547 124.051Z" fill="#535461"/>
<path d="M208.234 237.331L126.143 258.784V145.934L208.234 124.051V237.331Z" fill="#535461"/>
<path opacity="0.07" d="M208.234 237.331L126.143 258.784V145.934L208.234 124.051V237.331Z" fill="black"/>
<path opacity="0.07" d="M175.57 199.572V236.9L208.234 227.891V190.559L175.57 199.572Z" fill="black"/>
<path d="M189.484 114.566H165.273V137.788H189.484V114.566Z" fill="url(#paint84_linear)"/>
<path d="M189.105 115.133H165.653V137.314H189.105V115.133Z" fill="#F5F5F5"/>
<g opacity="0.5">
<path opacity="0.5" d="M179.455 119.023V117.869H175.307V119.009H172.403V124.602H182.358V119.023H179.455ZM175.826 118.299H178.938V119.023H175.826V118.299Z" fill="url(#paint85_linear)"/>
</g>
<path opacity="0.6" d="M181.934 119.211H172.82V124.329H181.934V119.211Z" fill="#FF0036"/>
<path opacity="0.6" d="M175.48 118.168V119.496H175.956V118.547H178.804V119.496H179.276V118.168H175.48Z" fill="#FF0036"/>
<g opacity="0.6">
<path opacity="0.6" d="M181.794 128.312H173.344V129.449H181.794V128.312Z" fill="#FF0036"/>
</g>
<path d="M184.594 130.398H170.163V131.535H184.594V130.398Z" fill="#BDBDBD"/>
<path d="M166.275 0H142.064V23.222H166.275V0Z" fill="url(#paint86_linear)"/>
<path d="M165.896 0.570312H142.444V22.751H165.896V0.570312Z" fill="#F5F5F5"/>
<g opacity="0.5">
<path opacity="0.5" d="M156.246 4.45522V3.31836H152.098V4.45522H149.194V10.0473H159.149V4.45522H156.246ZM152.617 3.73145H155.729V4.45522H152.617V3.73145Z" fill="url(#paint87_linear)"/>
</g>
<path opacity="0.6" d="M158.726 4.64258H149.612V9.76016H158.726V4.64258Z" fill="#FF0036"/>
<path opacity="0.6" d="M152.272 3.60156V4.92961H152.748V3.98052H155.596V4.92961H156.068V3.60156H152.272Z" fill="#FF0036"/>
<g opacity="0.6">
<path opacity="0.6" d="M158.585 13.7441H150.135V14.881H158.585V13.7441Z" fill="#FF0036"/>
</g>
<path d="M161.385 15.832H146.954V16.9689H161.385V15.832Z" fill="#BDBDBD"/>
<g opacity="0.5">
<path opacity="0.5" d="M139.247 43.5762H107.879V69.3006H139.247V43.5762Z" fill="url(#paint88_linear)"/>
</g>
<path d="M138.822 44.0645H108.244V68.874H138.822V44.0645Z" fill="#F2F2F2"/>
<path d="M138.822 44.0645H108.244V49.5985H138.822V44.0645Z" fill="#FF0036"/>
<path opacity="0.1" d="M138.822 44.0645H108.244V49.5985H138.822V44.0645Z" fill="black"/>
<path d="M136.388 51.6055H110.683V54.8283H136.388V51.6055Z" fill="#E0E0E0"/>
<path d="M129.443 57.2598H110.683V58.3557H129.443V57.2598Z" fill="#E0E0E0"/>
<path d="M122.863 59.1445H110.683V60.2404H122.863V59.1445Z" fill="#E0E0E0"/>
<path d="M126.762 61.0293H110.683V62.1252H126.762V61.0293Z" fill="#E0E0E0"/>
<path d="M129.443 62.918H110.683V64.0139H129.443V62.918Z" fill="#E0E0E0"/>
<path d="M116.958 64.8008H110.683V65.8967H116.958V64.8008Z" fill="#E0E0E0"/>
<g opacity="0.5">
<path opacity="0.5" d="M192.876 62.8926H153.995V94.7759H192.876V62.8926Z" fill="url(#paint89_linear)"/>
</g>
<path d="M192.35 63.4922H154.45V94.2455H192.35V63.4922Z" fill="white"/>
<path d="M192.35 63.4922H154.45V70.3509H192.35V63.4922Z" fill="#FF0036"/>
<path d="M189.33 72.8418H157.47V76.8362H189.33V72.8418Z" fill="#F5F5F5"/>
<path d="M180.723 79.8496H157.47V81.205H180.723V79.8496Z" fill="#E0E0E0"/>
<path d="M172.571 82.1875H157.47V83.5429H172.571V82.1875Z" fill="#E0E0E0"/>
<path d="M177.399 84.5234H157.47V85.8788H177.399V84.5234Z" fill="#E0E0E0"/>
<path d="M180.723 86.8633H157.47V88.2186H180.723V86.8633Z" fill="#E0E0E0"/>
<path d="M165.246 89.1973H157.47V90.5526H165.246V89.1973Z" fill="#E0E0E0"/>
<path d="M168.19 74.1953H159.132V75.4005H168.19V74.1953Z" fill="#69F0AE"/>
<path opacity="0.1" d="M42.9805 183.051L88.9675 194.635L125.93 164.599V146.149L43.8388 125.553L42.9805 183.051Z" fill="black"/>
<path opacity="0.1" d="M208.88 183.051L162.893 194.635L125.931 164.599V146.149L208.022 125.553L208.88 183.051Z" fill="black"/>
<path d="M44.055 124.051L1.93555 158.805L84.0235 179.402L126.143 145.934L44.055 124.051Z" fill="#535461"/>
<path d="M208.234 124.051L250.784 158.805L169.124 179.402L126.143 145.934L208.234 124.051Z" fill="#535461"/>
<path opacity="0.07" d="M208.234 124.051L250.784 158.805L169.124 179.402L126.143 145.934L208.234 124.051Z" fill="black"/>
</g>
<defs>
<linearGradient id="paint0_linear" x1="125.284" y1="183.101" x2="208.083" y2="183.101" gradientUnits="userSpaceOnUse">
<stop stop-color="#808080" stop-opacity="0.25"/>
<stop offset="0.54" stop-color="#808080" stop-opacity="0.12"/>
<stop offset="1" stop-color="#808080" stop-opacity="0.1"/>
</linearGradient>
<linearGradient id="paint1_linear" x1="125.284" y1="183.101" x2="208.083" y2="183.101" gradientUnits="userSpaceOnUse">
<stop stop-color="#808080" stop-opacity="0.25"/>
<stop offset="0.54" stop-color="#808080" stop-opacity="0.12"/>
<stop offset="1" stop-color="#808080" stop-opacity="0.1"/>
</linearGradient>
<linearGradient id="paint2_linear" x1="10329.1" y1="83666.3" x2="30378.9" y2="83666.3" gradientUnits="userSpaceOnUse">
<stop stop-color="#808080" stop-opacity="0.25"/>
<stop offset="0.54" stop-color="#808080" stop-opacity="0.12"/>
<stop offset="1" stop-color="#808080" stop-opacity="0.1"/>
</linearGradient>
<linearGradient id="paint3_linear" x1="10329.1" y1="83666.3" x2="30378.9" y2="83666.3" gradientUnits="userSpaceOnUse">
<stop stop-color="#808080" stop-opacity="0.25"/>
<stop offset="0.54" stop-color="#808080" stop-opacity="0.12"/>
<stop offset="1" stop-color="#808080" stop-opacity="0.1"/>
</linearGradient>
<linearGradient id="paint4_linear" x1="46183.7" y1="15874.6" x2="92400.5" y2="15874.6" gradientUnits="userSpaceOnUse">
<stop stop-color="#808080" stop-opacity="0.25"/>
<stop offset="0.54" stop-color="#808080" stop-opacity="0.12"/>
<stop offset="1" stop-color="#808080" stop-opacity="0.1"/>
</linearGradient>
<linearGradient id="paint5_linear" x1="0" y1="15874.6" x2="45900.5" y2="15874.6" gradientUnits="userSpaceOnUse">
<stop stop-color="#808080" stop-opacity="0.25"/>
<stop offset="0.54" stop-color="#808080" stop-opacity="0.12"/>
<stop offset="1" stop-color="#808080" stop-opacity="0.1"/>
</linearGradient>
<linearGradient id="paint6_linear" x1="0" y1="15874.6" x2="45900.5" y2="15874.6" gradientUnits="userSpaceOnUse">
<stop stop-color="#808080" stop-opacity="0.25"/>
<stop offset="0.54" stop-color="#808080" stop-opacity="0.12"/>
<stop offset="1" stop-color="#808080" stop-opacity="0.1"/>
</linearGradient>
<linearGradient id="paint7_linear" x1="17065.4" y1="23931.1" x2="17065.4" y2="14544.5" gradientUnits="userSpaceOnUse">
<stop stop-color="#808080" stop-opacity="0.25"/>
<stop offset="0.54" stop-color="#808080" stop-opacity="0.12"/>
<stop offset="1" stop-color="#808080" stop-opacity="0.1"/>
</linearGradient>
<linearGradient id="paint8_linear" x1="11410.7" y1="18733.9" x2="21952.8" y2="18733.9" gradientUnits="userSpaceOnUse">
<stop stop-color="#808080" stop-opacity="0.25"/>
<stop offset="0.54" stop-color="#808080" stop-opacity="0.12"/>
<stop offset="1" stop-color="#808080" stop-opacity="0.1"/>
</linearGradient>
<linearGradient id="paint9_linear" x1="2119.66" y1="2795.55" x2="2419.48" y2="2795.55" gradientUnits="userSpaceOnUse">
<stop stop-color="#808080" stop-opacity="0.25"/>
<stop offset="0.54" stop-color="#808080" stop-opacity="0.12"/>
<stop offset="1" stop-color="#808080" stop-opacity="0.1"/>
</linearGradient>
<linearGradient id="paint10_linear" x1="9782.81" y1="384.515" x2="14520.9" y2="384.515" gradientUnits="userSpaceOnUse">
<stop stop-color="#808080" stop-opacity="0.25"/>
<stop offset="0.54" stop-color="#808080" stop-opacity="0.12"/>
<stop offset="1" stop-color="#808080" stop-opacity="0.1"/>
</linearGradient>
<linearGradient id="paint11_linear" x1="9782.81" y1="396.523" x2="14520.9" y2="396.523" gradientUnits="userSpaceOnUse">
<stop stop-color="#808080" stop-opacity="0.25"/>
<stop offset="0.54" stop-color="#808080" stop-opacity="0.12"/>
<stop offset="1" stop-color="#808080" stop-opacity="0.1"/>
</linearGradient>
<linearGradient id="paint12_linear" x1="10928.5" y1="440.118" x2="19591.1" y2="440.118" gradientUnits="userSpaceOnUse">
<stop stop-color="#808080" stop-opacity="0.25"/>
<stop offset="0.54" stop-color="#808080" stop-opacity="0.12"/>
<stop offset="1" stop-color="#808080" stop-opacity="0.1"/>
</linearGradient>
<linearGradient id="paint13_linear" x1="10928.5" y1="452.122" x2="19591.1" y2="452.122" gradientUnits="userSpaceOnUse">
<stop stop-color="#808080" stop-opacity="0.25"/>
<stop offset="0.54" stop-color="#808080" stop-opacity="0.12"/>
<stop offset="1" stop-color="#808080" stop-opacity="0.1"/>
</linearGradient>
<linearGradient id="paint14_linear" x1="10928.5" y1="468.128" x2="19591.1" y2="468.128" gradientUnits="userSpaceOnUse">
<stop stop-color="#808080" stop-opacity="0.25"/>
<stop offset="0.54" stop-color="#808080" stop-opacity="0.12"/>
<stop offset="1" stop-color="#808080" stop-opacity="0.1"/>
</linearGradient>
<linearGradient id="paint15_linear" x1="6331.53" y1="480.152" x2="9212.7" y2="480.152" gradientUnits="userSpaceOnUse">
<stop stop-color="#808080" stop-opacity="0.25"/>
<stop offset="0.54" stop-color="#808080" stop-opacity="0.12"/>
<stop offset="1" stop-color="#808080" stop-opacity="0.1"/>
</linearGradient>
<linearGradient id="paint16_linear" x1="10928.5" y1="496.125" x2="19591.1" y2="496.125" gradientUnits="userSpaceOnUse">
<stop stop-color="#808080" stop-opacity="0.25"/>
<stop offset="0.54" stop-color="#808080" stop-opacity="0.12"/>
<stop offset="1" stop-color="#808080" stop-opacity="0.1"/>
</linearGradient>
<linearGradient id="paint17_linear" x1="10928.5" y1="508.122" x2="19591.1" y2="508.122" gradientUnits="userSpaceOnUse">
<stop stop-color="#808080" stop-opacity="0.25"/>
<stop offset="0.54" stop-color="#808080" stop-opacity="0.12"/>
<stop offset="1" stop-color="#808080" stop-opacity="0.1"/>
</linearGradient>
<linearGradient id="paint18_linear" x1="10928.5" y1="524.144" x2="19591.1" y2="524.144" gradientUnits="userSpaceOnUse">
<stop stop-color="#808080" stop-opacity="0.25"/>
<stop offset="0.54" stop-color="#808080" stop-opacity="0.12"/>
<stop offset="1" stop-color="#808080" stop-opacity="0.1"/>
</linearGradient>
<linearGradient id="paint19_linear" x1="6331.53" y1="536.151" x2="9212.7" y2="536.151" gradientUnits="userSpaceOnUse">
<stop stop-color="#808080" stop-opacity="0.25"/>
<stop offset="0.54" stop-color="#808080" stop-opacity="0.12"/>
<stop offset="1" stop-color="#808080" stop-opacity="0.1"/>
</linearGradient>
<linearGradient id="paint20_linear" x1="18741.4" y1="26113.5" x2="18741.4" y2="16726.3" gradientUnits="userSpaceOnUse">
<stop stop-color="#808080" stop-opacity="0.25"/>
<stop offset="0.54" stop-color="#808080" stop-opacity="0.12"/>
<stop offset="1" stop-color="#808080" stop-opacity="0.1"/>
</linearGradient>
<linearGradient id="paint21_linear" x1="13048.3" y1="20863.7" x2="23590.4" y2="20863.7" gradientUnits="userSpaceOnUse">
<stop stop-color="#808080" stop-opacity="0.25"/>
<stop offset="0.54" stop-color="#808080" stop-opacity="0.12"/>
<stop offset="1" stop-color="#808080" stop-opacity="0.1"/>
</linearGradient>
<linearGradient id="paint22_linear" x1="2403.54" y1="3157.28" x2="2703.35" y2="3157.28" gradientUnits="userSpaceOnUse">
<stop stop-color="#808080" stop-opacity="0.25"/>
<stop offset="0.54" stop-color="#808080" stop-opacity="0.12"/>
<stop offset="1" stop-color="#808080" stop-opacity="0.1"/>
</linearGradient>
<linearGradient id="paint23_linear" x1="10884.1" y1="436.324" x2="15622.2" y2="436.324" gradientUnits="userSpaceOnUse">
<stop stop-color="#808080" stop-opacity="0.25"/>
<stop offset="0.54" stop-color="#808080" stop-opacity="0.12"/>
<stop offset="1" stop-color="#808080" stop-opacity="0.1"/>
</linearGradient>
<linearGradient id="paint24_linear" x1="10884.1" y1="448.326" x2="15622.2" y2="448.326" gradientUnits="userSpaceOnUse">
<stop stop-color="#808080" stop-opacity="0.25"/>
<stop offset="0.54" stop-color="#808080" stop-opacity="0.12"/>
<stop offset="1" stop-color="#808080" stop-opacity="0.1"/>
</linearGradient>
<linearGradient id="paint25_linear" x1="12413.9" y1="491.914" x2="21076.9" y2="491.914" gradientUnits="userSpaceOnUse">
<stop stop-color="#808080" stop-opacity="0.25"/>
<stop offset="0.54" stop-color="#808080" stop-opacity="0.12"/>
<stop offset="1" stop-color="#808080" stop-opacity="0.1"/>
</linearGradient>
<linearGradient id="paint26_linear" x1="12413.9" y1="503.939" x2="21076.9" y2="503.939" gradientUnits="userSpaceOnUse">
<stop stop-color="#808080" stop-opacity="0.25"/>
<stop offset="0.54" stop-color="#808080" stop-opacity="0.12"/>
<stop offset="1" stop-color="#808080" stop-opacity="0.1"/>
</linearGradient>
<linearGradient id="paint27_linear" x1="12413.9" y1="519.941" x2="21076.9" y2="519.941" gradientUnits="userSpaceOnUse">
<stop stop-color="#808080" stop-opacity="0.25"/>
<stop offset="0.54" stop-color="#808080" stop-opacity="0.12"/>
<stop offset="1" stop-color="#808080" stop-opacity="0.1"/>
</linearGradient>
<linearGradient id="paint28_linear" x1="7192.07" y1="531.958" x2="10073.2" y2="531.958" gradientUnits="userSpaceOnUse">
<stop stop-color="#808080" stop-opacity="0.25"/>
<stop offset="0.54" stop-color="#808080" stop-opacity="0.12"/>
<stop offset="1" stop-color="#808080" stop-opacity="0.1"/>
</linearGradient>
<linearGradient id="paint29_linear" x1="12413.9" y1="547.938" x2="21076.9" y2="547.938" gradientUnits="userSpaceOnUse">
<stop stop-color="#808080" stop-opacity="0.25"/>
<stop offset="0.54" stop-color="#808080" stop-opacity="0.12"/>
<stop offset="1" stop-color="#808080" stop-opacity="0.1"/>
</linearGradient>
<linearGradient id="paint30_linear" x1="12413.9" y1="559.937" x2="21076.9" y2="559.937" gradientUnits="userSpaceOnUse">
<stop stop-color="#808080" stop-opacity="0.25"/>
<stop offset="0.54" stop-color="#808080" stop-opacity="0.12"/>
<stop offset="1" stop-color="#808080" stop-opacity="0.1"/>
</linearGradient>
<linearGradient id="paint31_linear" x1="12413.9" y1="575.95" x2="21076.9" y2="575.95" gradientUnits="userSpaceOnUse">
<stop stop-color="#808080" stop-opacity="0.25"/>
<stop offset="0.54" stop-color="#808080" stop-opacity="0.12"/>
<stop offset="1" stop-color="#808080" stop-opacity="0.1"/>
</linearGradient>
<linearGradient id="paint32_linear" x1="7192.07" y1="587.93" x2="10073.2" y2="587.93" gradientUnits="userSpaceOnUse">
<stop stop-color="#808080" stop-opacity="0.25"/>
<stop offset="0.54" stop-color="#808080" stop-opacity="0.12"/>
<stop offset="1" stop-color="#808080" stop-opacity="0.1"/>
</linearGradient>
<linearGradient id="paint33_linear" x1="21210.4" y1="31220.8" x2="21210.4" y2="19792.6" gradientUnits="userSpaceOnUse">
<stop stop-color="#808080" stop-opacity="0.25"/>
<stop offset="0.54" stop-color="#808080" stop-opacity="0.12"/>
<stop offset="1" stop-color="#808080" stop-opacity="0.1"/>
</linearGradient>
<linearGradient id="paint34_linear" x1="16425.8" y1="24504.3" x2="23877.7" y2="24504.3" gradientUnits="userSpaceOnUse">
<stop stop-color="#808080" stop-opacity="0.25"/>
<stop offset="0.54" stop-color="#808080" stop-opacity="0.12"/>
<stop offset="1" stop-color="#808080" stop-opacity="0.1"/>
</linearGradient>
<linearGradient id="paint35_linear" x1="8445.11" y1="4002" x2="8445.11" y2="3768.9" gradientUnits="userSpaceOnUse">
<stop stop-color="#808080" stop-opacity="0.25"/>
<stop offset="0.54" stop-color="#808080" stop-opacity="0.12"/>
<stop offset="1" stop-color="#808080" stop-opacity="0.1"/>
</linearGradient>
<linearGradient id="paint36_linear" x1="4714.02" y1="2539.68" x2="5141.1" y2="2539.68" gradientUnits="userSpaceOnUse">
<stop stop-color="#808080" stop-opacity="0.25"/>
<stop offset="0.54" stop-color="#808080" stop-opacity="0.12"/>
<stop offset="1" stop-color="#808080" stop-opacity="0.1"/>
</linearGradient>
<linearGradient id="paint37_linear" x1="2094.61" y1="725.38" x2="2168.71" y2="725.38" gradientUnits="userSpaceOnUse">
<stop stop-color="#808080" stop-opacity="0.25"/>
<stop offset="0.54" stop-color="#808080" stop-opacity="0.12"/>
<stop offset="1" stop-color="#808080" stop-opacity="0.1"/>
</linearGradient>
<linearGradient id="paint38_linear" x1="12375.6" y1="734.795" x2="16060.7" y2="734.795" gradientUnits="userSpaceOnUse">
<stop stop-color="#808080" stop-opacity="0.25"/>
<stop offset="0.54" stop-color="#808080" stop-opacity="0.12"/>
<stop offset="1" stop-color="#808080" stop-opacity="0.1"/>
</linearGradient>
<linearGradient id="paint39_linear" x1="12375.6" y1="788.61" x2="16060.7" y2="788.61" gradientUnits="userSpaceOnUse">
<stop stop-color="#808080" stop-opacity="0.25"/>
<stop offset="0.54" stop-color="#808080" stop-opacity="0.12"/>
<stop offset="1" stop-color="#808080" stop-opacity="0.1"/>
</linearGradient>
<linearGradient id="paint40_linear" x1="12375.6" y1="802.9" x2="16060.7" y2="802.9" gradientUnits="userSpaceOnUse">
<stop stop-color="#808080" stop-opacity="0.25"/>
<stop offset="0.54" stop-color="#808080" stop-opacity="0.12"/>
<stop offset="1" stop-color="#808080" stop-opacity="0.1"/>
</linearGradient>
<linearGradient id="paint41_linear" x1="5290.98" y1="774.292" x2="5947.32" y2="774.292" gradientUnits="userSpaceOnUse">
<stop stop-color="#808080" stop-opacity="0.25"/>
<stop offset="0.54" stop-color="#808080" stop-opacity="0.12"/>
<stop offset="1" stop-color="#808080" stop-opacity="0.1"/>
</linearGradient>
<linearGradient id="paint42_linear" x1="4806.48" y1="774.292" x2="5173.48" y2="774.292" gradientUnits="userSpaceOnUse">
<stop stop-color="#808080" stop-opacity="0.25"/>
<stop offset="0.54" stop-color="#808080" stop-opacity="0.12"/>
<stop offset="1" stop-color="#808080" stop-opacity="0.1"/>
</linearGradient>
<linearGradient id="paint43_linear" x1="4406.94" y1="836.273" x2="4774.05" y2="836.273" gradientUnits="userSpaceOnUse">
<stop stop-color="#808080" stop-opacity="0.25"/>
<stop offset="0.54" stop-color="#808080" stop-opacity="0.12"/>
<stop offset="1" stop-color="#808080" stop-opacity="0.1"/>
</linearGradient>
<linearGradient id="paint44_linear" x1="10329.1" y1="76971.1" x2="30378.9" y2="76971.1" gradientUnits="userSpaceOnUse">
<stop stop-color="#808080" stop-opacity="0.25"/>
<stop offset="0.54" stop-color="#808080" stop-opacity="0.12"/>
<stop offset="1" stop-color="#808080" stop-opacity="0.1"/>
</linearGradient>
<linearGradient id="paint45_linear" x1="30460.4" y1="76971.1" x2="50508.6" y2="76971.1" gradientUnits="userSpaceOnUse">
<stop stop-color="#808080" stop-opacity="0.25"/>
<stop offset="0.54" stop-color="#808080" stop-opacity="0.12"/>
<stop offset="1" stop-color="#808080" stop-opacity="0.1"/>
</linearGradient>
<linearGradient id="paint46_linear" x1="30460.4" y1="76971.1" x2="50508.6" y2="76971.1" gradientUnits="userSpaceOnUse">
<stop stop-color="#808080" stop-opacity="0.25"/>
<stop offset="0.54" stop-color="#808080" stop-opacity="0.12"/>
<stop offset="1" stop-color="#808080" stop-opacity="0.1"/>
</linearGradient>
<linearGradient id="paint47_linear" x1="17049.5" y1="29704" x2="20224" y2="29704" gradientUnits="userSpaceOnUse">
<stop stop-color="#808080" stop-opacity="0.25"/>
<stop offset="0.54" stop-color="#808080" stop-opacity="0.12"/>
<stop offset="1" stop-color="#808080" stop-opacity="0.1"/>
</linearGradient>
<linearGradient id="paint48_linear" x1="12801.6" y1="9649.56" x2="12801.6" y2="8042.48" gradientUnits="userSpaceOnUse">
<stop stop-color="#808080" stop-opacity="0.25"/>
<stop offset="0.54" stop-color="#808080" stop-opacity="0.12"/>
<stop offset="1" stop-color="#808080" stop-opacity="0.1"/>
</linearGradient>
<linearGradient id="paint49_linear" x1="11587.4" y1="8457.92" x2="13223.5" y2="8457.92" gradientUnits="userSpaceOnUse">
<stop stop-color="#808080" stop-opacity="0.25"/>
<stop offset="0.54" stop-color="#808080" stop-opacity="0.12"/>
<stop offset="1" stop-color="#808080" stop-opacity="0.1"/>
</linearGradient>
<linearGradient id="paint50_linear" x1="7709.41" y1="3077.08" x2="7709.41" y2="2942.08" gradientUnits="userSpaceOnUse">
<stop stop-color="#808080" stop-opacity="0.25"/>
<stop offset="0.54" stop-color="#808080" stop-opacity="0.12"/>
<stop offset="1" stop-color="#808080" stop-opacity="0.1"/>
</linearGradient>
<linearGradient id="paint51_linear" x1="4805.46" y1="1977.04" x2="5052.63" y2="1977.04" gradientUnits="userSpaceOnUse">
<stop stop-color="#808080" stop-opacity="0.25"/>
<stop offset="0.54" stop-color="#808080" stop-opacity="0.12"/>
<stop offset="1" stop-color="#808080" stop-opacity="0.1"/>
</linearGradient>
<linearGradient id="paint52_linear" x1="2137.34" y1="590.149" x2="2180.28" y2="590.149" gradientUnits="userSpaceOnUse">
<stop stop-color="#808080" stop-opacity="0.25"/>
<stop offset="0.54" stop-color="#808080" stop-opacity="0.12"/>
<stop offset="1" stop-color="#808080" stop-opacity="0.1"/>
</linearGradient>
<linearGradient id="paint53_linear" x1="4481.29" y1="566.119" x2="4693.73" y2="566.119" gradientUnits="userSpaceOnUse">
<stop stop-color="#808080" stop-opacity="0.25"/>
<stop offset="0.54" stop-color="#808080" stop-opacity="0.12"/>
<stop offset="1" stop-color="#808080" stop-opacity="0.1"/>
</linearGradient>
<linearGradient id="paint54_linear" x1="7393.02" y1="575.298" x2="8012.72" y2="575.298" gradientUnits="userSpaceOnUse">
<stop stop-color="#808080" stop-opacity="0.25"/>
<stop offset="0.54" stop-color="#808080" stop-opacity="0.12"/>
<stop offset="1" stop-color="#808080" stop-opacity="0.1"/>
</linearGradient>
<linearGradient id="paint55_linear" x1="11457.4" y1="5354.9" x2="11457.4" y2="3382.97" gradientUnits="userSpaceOnUse">
<stop stop-color="#808080" stop-opacity="0.25"/>
<stop offset="0.54" stop-color="#808080" stop-opacity="0.12"/>
<stop offset="1" stop-color="#808080" stop-opacity="0.1"/>
</linearGradient>
<linearGradient id="paint56_linear" x1="9778.21" y1="4218.03" x2="12559.8" y2="4218.03" gradientUnits="userSpaceOnUse">
<stop stop-color="#808080" stop-opacity="0.25"/>
<stop offset="0.54" stop-color="#808080" stop-opacity="0.12"/>
<stop offset="1" stop-color="#808080" stop-opacity="0.1"/>
</linearGradient>
<linearGradient id="paint57_linear" x1="9778.21" y1="816.402" x2="12559.8" y2="816.402" gradientUnits="userSpaceOnUse">
<stop stop-color="#808080" stop-opacity="0.25"/>
<stop offset="0.54" stop-color="#808080" stop-opacity="0.12"/>
<stop offset="1" stop-color="#808080" stop-opacity="0.1"/>
</linearGradient>
<linearGradient id="paint58_linear" x1="9778.21" y1="816.402" x2="12559.8" y2="816.402" gradientUnits="userSpaceOnUse">
<stop stop-color="#808080" stop-opacity="0.25"/>
<stop offset="0.54" stop-color="#808080" stop-opacity="0.12"/>
<stop offset="1" stop-color="#808080" stop-opacity="0.1"/>
</linearGradient>
<linearGradient id="paint59_linear" x1="8426.2" y1="562.854" x2="10391.8" y2="562.854" gradientUnits="userSpaceOnUse">
<stop stop-color="#808080" stop-opacity="0.25"/>
<stop offset="0.54" stop-color="#808080" stop-opacity="0.12"/>
<stop offset="1" stop-color="#808080" stop-opacity="0.1"/>
</linearGradient>
<linearGradient id="paint60_linear" x1="6179.81" y1="246.007" x2="7226.89" y2="246.007" gradientUnits="userSpaceOnUse">
<stop stop-color="#808080" stop-opacity="0.25"/>
<stop offset="0.54" stop-color="#808080" stop-opacity="0.12"/>
<stop offset="1" stop-color="#808080" stop-opacity="0.1"/>
</linearGradient>
<linearGradient id="paint61_linear" x1="4050.77" y1="254.05" x2="4492.23" y2="254.05" gradientUnits="userSpaceOnUse">
<stop stop-color="#808080" stop-opacity="0.25"/>
<stop offset="0.54" stop-color="#808080" stop-opacity="0.12"/>
<stop offset="1" stop-color="#808080" stop-opacity="0.1"/>
</linearGradient>
<linearGradient id="paint62_linear" x1="5312.16" y1="262.094" x2="6081.44" y2="262.094" gradientUnits="userSpaceOnUse">
<stop stop-color="#808080" stop-opacity="0.25"/>
<stop offset="0.54" stop-color="#808080" stop-opacity="0.12"/>
<stop offset="1" stop-color="#808080" stop-opacity="0.1"/>
</linearGradient>
<linearGradient id="paint63_linear" x1="6179.81" y1="270.134" x2="7226.89" y2="270.134" gradientUnits="userSpaceOnUse">
<stop stop-color="#808080" stop-opacity="0.25"/>
<stop offset="0.54" stop-color="#808080" stop-opacity="0.12"/>
<stop offset="1" stop-color="#808080" stop-opacity="0.1"/>
</linearGradient>
<linearGradient id="paint64_linear" x1="2138.91" y1="278.18" x2="2255.95" y2="278.18" gradientUnits="userSpaceOnUse">
<stop stop-color="#808080" stop-opacity="0.25"/>
<stop offset="0.54" stop-color="#808080" stop-opacity="0.12"/>
<stop offset="1" stop-color="#808080" stop-opacity="0.1"/>
</linearGradient>
<linearGradient id="paint65_linear" x1="19991.3" y1="9065.61" x2="19991.3" y2="6036.8" gradientUnits="userSpaceOnUse">
<stop stop-color="#808080" stop-opacity="0.25"/>
<stop offset="0.54" stop-color="#808080" stop-opacity="0.12"/>
<stop offset="1" stop-color="#808080" stop-opacity="0.1"/>
</linearGradient>
<linearGradient id="paint66_linear" x1="17351.1" y1="7289.55" x2="21624.2" y2="7289.55" gradientUnits="userSpaceOnUse">
<stop stop-color="#808080" stop-opacity="0.25"/>
<stop offset="0.54" stop-color="#808080" stop-opacity="0.12"/>
<stop offset="1" stop-color="#808080" stop-opacity="0.1"/>
</linearGradient>
<linearGradient id="paint67_linear" x1="17351.1" y1="1431.26" x2="21624.2" y2="1431.26" gradientUnits="userSpaceOnUse">
<stop stop-color="#808080" stop-opacity="0.25"/>
<stop offset="0.54" stop-color="#808080" stop-opacity="0.12"/>
<stop offset="1" stop-color="#808080" stop-opacity="0.1"/>
</linearGradient>
<linearGradient id="paint68_linear" x1="14898.7" y1="963.956" x2="17918.4" y2="963.956" gradientUnits="userSpaceOnUse">
<stop stop-color="#808080" stop-opacity="0.25"/>
<stop offset="0.54" stop-color="#808080" stop-opacity="0.12"/>
<stop offset="1" stop-color="#808080" stop-opacity="0.1"/>
</linearGradient>
<linearGradient id="paint69_linear" x1="10917.2" y1="406.16" x2="12526" y2="406.16" gradientUnits="userSpaceOnUse">
<stop stop-color="#808080" stop-opacity="0.25"/>
<stop offset="0.54" stop-color="#808080" stop-opacity="0.12"/>
<stop offset="1" stop-color="#808080" stop-opacity="0.1"/>
</linearGradient>
<linearGradient id="paint70_linear" x1="7144.25" y1="417.966" x2="7822.64" y2="417.966" gradientUnits="userSpaceOnUse">
<stop stop-color="#808080" stop-opacity="0.25"/>
<stop offset="0.54" stop-color="#808080" stop-opacity="0.12"/>
<stop offset="1" stop-color="#808080" stop-opacity="0.1"/>
</linearGradient>
<linearGradient id="paint71_linear" x1="9379.76" y1="429.779" x2="10561.7" y2="429.779" gradientUnits="userSpaceOnUse">
<stop stop-color="#808080" stop-opacity="0.25"/>
<stop offset="0.54" stop-color="#808080" stop-opacity="0.12"/>
<stop offset="1" stop-color="#808080" stop-opacity="0.1"/>
</linearGradient>
<linearGradient id="paint72_linear" x1="10917.2" y1="441.575" x2="12526" y2="441.575" gradientUnits="userSpaceOnUse">
<stop stop-color="#808080" stop-opacity="0.25"/>
<stop offset="0.54" stop-color="#808080" stop-opacity="0.12"/>
<stop offset="1" stop-color="#808080" stop-opacity="0.1"/>
</linearGradient>
<linearGradient id="paint73_linear" x1="3755.69" y1="453.392" x2="3935.65" y2="453.392" gradientUnits="userSpaceOnUse">
<stop stop-color="#808080" stop-opacity="0.25"/>
<stop offset="0.54" stop-color="#808080" stop-opacity="0.12"/>
<stop offset="1" stop-color="#808080" stop-opacity="0.1"/>
</linearGradient>
<linearGradient id="paint74_linear" x1="4395.13" y1="343.35" x2="4639.28" y2="343.35" gradientUnits="userSpaceOnUse">
<stop stop-color="#808080" stop-opacity="0.25"/>
<stop offset="0.54" stop-color="#808080" stop-opacity="0.12"/>
<stop offset="1" stop-color="#808080" stop-opacity="0.1"/>
</linearGradient>
<linearGradient id="paint75_linear" x1="10170.7" y1="33080.2" x2="30640" y2="33080.2" gradientUnits="userSpaceOnUse">
<stop stop-color="#808080" stop-opacity="0.25"/>
<stop offset="0.54" stop-color="#808080" stop-opacity="0.12"/>
<stop offset="1" stop-color="#808080" stop-opacity="0.1"/>
</linearGradient>
<linearGradient id="paint76_linear" x1="30724.9" y1="33080.2" x2="51195.9" y2="33080.2" gradientUnits="userSpaceOnUse">
<stop stop-color="#808080" stop-opacity="0.25"/>
<stop offset="0.54" stop-color="#808080" stop-opacity="0.12"/>
<stop offset="1" stop-color="#808080" stop-opacity="0.1"/>
</linearGradient>
<linearGradient id="paint77_linear" x1="0" y1="25149.8" x2="45900.5" y2="25149.8" gradientUnits="userSpaceOnUse">
<stop stop-color="#808080" stop-opacity="0.25"/>
<stop offset="0.54" stop-color="#808080" stop-opacity="0.12"/>
<stop offset="1" stop-color="#808080" stop-opacity="0.1"/>
</linearGradient>
<linearGradient id="paint78_linear" x1="46183.7" y1="25149.8" x2="92400.5" y2="25149.8" gradientUnits="userSpaceOnUse">
<stop stop-color="#808080" stop-opacity="0.25"/>
<stop offset="0.54" stop-color="#808080" stop-opacity="0.12"/>
<stop offset="1" stop-color="#808080" stop-opacity="0.1"/>
</linearGradient>
<linearGradient id="paint79_linear" x1="46183.7" y1="25149.8" x2="92400.5" y2="25149.8" gradientUnits="userSpaceOnUse">
<stop stop-color="#808080" stop-opacity="0.25"/>
<stop offset="0.54" stop-color="#808080" stop-opacity="0.12"/>
<stop offset="1" stop-color="#808080" stop-opacity="0.1"/>
</linearGradient>
<linearGradient id="paint80_linear" x1="17121" y1="23527" x2="17121" y2="14299.8" gradientUnits="userSpaceOnUse">
<stop stop-color="#808080" stop-opacity="0.25"/>
<stop offset="0.54" stop-color="#808080" stop-opacity="0.12"/>
<stop offset="1" stop-color="#808080" stop-opacity="0.1"/>
</linearGradient>
<linearGradient id="paint81_linear" x1="18769.2" y1="25672.1" x2="18769.2" y2="16445" gradientUnits="userSpaceOnUse">
<stop stop-color="#808080" stop-opacity="0.25"/>
<stop offset="0.54" stop-color="#808080" stop-opacity="0.12"/>
<stop offset="1" stop-color="#808080" stop-opacity="0.1"/>
</linearGradient>
<linearGradient id="paint82_linear" x1="21151" y1="30692.2" x2="21151" y2="19459.3" gradientUnits="userSpaceOnUse">
<stop stop-color="#808080" stop-opacity="0.25"/>
<stop offset="0.54" stop-color="#808080" stop-opacity="0.12"/>
<stop offset="1" stop-color="#808080" stop-opacity="0.1"/>
</linearGradient>
<linearGradient id="paint83_linear" x1="8404.44" y1="3942.45" x2="8404.44" y2="3713.08" gradientUnits="userSpaceOnUse">
<stop stop-color="#808080" stop-opacity="0.25"/>
<stop offset="0.54" stop-color="#808080" stop-opacity="0.12"/>
<stop offset="1" stop-color="#808080" stop-opacity="0.1"/>
</linearGradient>
<linearGradient id="paint84_linear" x1="12723.7" y1="9486.97" x2="12723.7" y2="7907.41" gradientUnits="userSpaceOnUse">
<stop stop-color="#808080" stop-opacity="0.25"/>
<stop offset="0.54" stop-color="#808080" stop-opacity="0.12"/>
<stop offset="1" stop-color="#808080" stop-opacity="0.1"/>
</linearGradient>
<linearGradient id="paint85_linear" x1="7655.32" y1="3031.39" x2="7655.32" y2="2898.69" gradientUnits="userSpaceOnUse">
<stop stop-color="#808080" stop-opacity="0.25"/>
<stop offset="0.54" stop-color="#808080" stop-opacity="0.12"/>
<stop offset="1" stop-color="#808080" stop-opacity="0.1"/>
</linearGradient>
<linearGradient id="paint86_linear" x1="11057.3" y1="1579.56" x2="11057.3" y2="0" gradientUnits="userSpaceOnUse">
<stop stop-color="#808080" stop-opacity="0.25"/>
<stop offset="0.54" stop-color="#808080" stop-opacity="0.12"/>
<stop offset="1" stop-color="#808080" stop-opacity="0.1"/>
</linearGradient>
<linearGradient id="paint87_linear" x1="6956.49" y1="657.241" x2="6956.49" y2="524.613" gradientUnits="userSpaceOnUse">
<stop stop-color="#808080" stop-opacity="0.25"/>
<stop offset="0.54" stop-color="#808080" stop-opacity="0.12"/>
<stop offset="1" stop-color="#808080" stop-opacity="0.1"/>
</linearGradient>
<linearGradient id="paint88_linear" x1="11442.4" y1="5265.38" x2="11442.4" y2="3327.05" gradientUnits="userSpaceOnUse">
<stop stop-color="#808080" stop-opacity="0.25"/>
<stop offset="0.54" stop-color="#808080" stop-opacity="0.12"/>
<stop offset="1" stop-color="#808080" stop-opacity="0.1"/>
</linearGradient>
<linearGradient id="paint89_linear" x1="19873.7" y1="8914.02" x2="19873.7" y2="5936.43" gradientUnits="userSpaceOnUse">
<stop stop-color="#808080" stop-opacity="0.25"/>
<stop offset="0.54" stop-color="#808080" stop-opacity="0.12"/>
<stop offset="1" stop-color="#808080" stop-opacity="0.1"/>
</linearGradient>
<clipPath id="clip0">
<rect width="251" height="261" fill="white"/>
</clipPath>
</defs>
</svg>
