<svg width="336" height="293" viewBox="0 0 336 293" fill="none" xmlns="http://www.w3.org/2000/svg">
<g clip-path="url(#clip0)">
<path d="M313.118 292.668V260.926C313.118 260.926 325.491 283.43 313.118 292.668Z" fill="#F1F1F1"/>
<path d="M313.882 292.662L290.495 271.195C290.495 271.195 315.443 277.301 313.882 292.662Z" fill="#F1F1F1"/>
<path d="M118.591 56.508H117.284V20.7156C117.284 15.2215 115.101 9.9524 111.215 6.06747C107.33 2.18254 102.06 3.49129e-06 96.5644 0H20.7195C17.9986 -6.33846e-06 15.3043 0.535812 12.7905 1.57686C10.2767 2.61792 7.99259 4.14382 6.06861 6.06744C4.14463 7.99106 2.61844 10.2747 1.57719 12.7881C0.535934 15.3014 4.61068e-06 17.9952 0 20.7156V217.075C-4.65584e-06 222.569 2.18293 227.838 6.06857 231.723C9.95422 235.608 15.2243 237.791 20.7194 237.791H96.5643C102.059 237.791 107.329 235.608 111.215 231.723C115.101 227.838 117.284 222.569 117.284 217.075V81.9855H118.591V56.508Z" fill="#3F3D56"/>
<path d="M97.4 5.38869H87.4997C87.955 6.5047 88.1288 7.71553 88.0058 8.91451C87.8828 10.1135 87.4667 11.2638 86.7943 12.2642C86.1219 13.2646 85.2138 14.0842 84.1499 14.651C83.086 15.2178 81.899 15.5143 80.6935 15.5144H37.243C36.0375 15.5143 34.8505 15.2178 33.7866 14.651C32.7227 14.0842 31.8145 13.2645 31.1421 12.2642C30.4697 11.2638 30.0537 10.1135 29.9307 8.91451C29.8077 7.71552 29.9814 6.50468 30.4367 5.38867H21.1899C19.1579 5.38867 17.1459 5.78881 15.2686 6.56626C13.3913 7.34371 11.6856 8.48323 10.2488 9.91977C8.81195 11.3563 7.67221 13.0617 6.89462 14.9387C6.11702 16.8156 5.7168 18.8273 5.7168 20.8588V216.93C5.7168 218.962 6.11701 220.974 6.8946 222.85C7.6722 224.727 8.81193 226.433 10.2487 227.869C11.6855 229.306 13.3913 230.445 15.2686 231.223C17.1458 232 19.1579 232.401 21.1898 232.401H97.4C101.504 232.401 105.439 230.771 108.341 227.869C111.243 224.968 112.873 221.033 112.873 216.93V20.8589C112.873 18.8273 112.473 16.8156 111.695 14.9387C110.918 13.0618 109.778 11.3563 108.341 9.9198C106.904 8.48325 105.199 7.34372 103.321 6.56628C101.444 5.78883 99.4319 5.38868 97.4 5.38869Z" fill="white"/>
<path d="M59.2954 151.681C79.7637 151.681 96.3565 135.091 96.3565 114.626C96.3565 94.162 79.7637 77.5723 59.2954 77.5723C38.8272 77.5723 22.2344 94.162 22.2344 114.626C22.2344 135.091 38.8272 151.681 59.2954 151.681Z" fill="#FF0036"/>
<path d="M70.2776 117.159L61.0613 126.65C60.8607 126.852 60.6211 127.011 60.357 127.117C60.0929 127.224 59.8099 127.275 59.5252 127.268H59.4946C59.2093 127.275 58.9257 127.223 58.661 127.117C58.3962 127.01 58.1557 126.852 57.954 126.65L48.7422 117.159C48.7116 117.124 48.6764 117.093 48.6456 117.062C48.2779 116.668 48.0817 116.144 48.0998 115.605C48.1179 115.066 48.3489 114.557 48.7422 114.188C49.1629 113.793 49.7185 113.573 50.2958 113.573C50.8732 113.573 51.4288 113.793 51.8495 114.188L57.309 119.892V105.184C57.3344 104.618 57.5774 104.083 57.9874 103.691C58.3973 103.299 58.9427 103.08 59.5099 103.08C60.0771 103.08 60.6224 103.299 61.0324 103.691C61.4424 104.083 61.6854 104.618 61.7108 105.184V119.892L67.166 114.188C67.5876 113.793 68.1438 113.573 68.7218 113.573C69.2998 113.573 69.856 113.793 70.2776 114.188C70.3084 114.219 70.3391 114.249 70.3742 114.285C70.7409 114.679 70.9365 115.203 70.9184 115.742C70.9003 116.28 70.6699 116.789 70.2776 117.159Z" fill="white"/>
<path d="M259.048 286.654L253.667 286.654L251.107 265.904L259.048 265.905L259.048 286.654Z" fill="#9F616A"/>
<path d="M260.419 291.868L243.07 291.867V291.648C243.07 289.857 243.782 288.14 245.048 286.874C246.315 285.608 248.032 284.897 249.823 284.896H249.823L260.42 284.897L260.419 291.868Z" fill="#2F2E41"/>
<path d="M218.173 286.477L212.975 285.087L215.862 264.381L223.534 266.432L218.173 286.477Z" fill="#9F616A"/>
<path d="M218.151 291.868L201.391 287.387L201.447 287.175C201.91 285.446 203.041 283.97 204.591 283.074C206.142 282.178 207.985 281.935 209.715 282.397L209.715 282.397L219.952 285.134L218.151 291.868Z" fill="#2F2E41"/>
<path d="M262.143 170.369L266.65 175.604L260.821 281.986H248.371L242.094 200.129L222.632 284.181L209.688 281.007L221.457 174.25L262.143 170.369Z" fill="#2F2E41"/>
<path d="M224.466 101.687L236.862 95.4707L255.925 95.8057L272.33 104.199L262.997 150.804L267.028 175.104H267.028C251.445 179.078 235.13 179.212 219.483 175.496L219.358 175.466C219.358 175.466 228.625 142.593 224.68 132.562L224.466 101.687Z" fill="#CBCBCB"/>
<path d="M260.329 76.8478C260.315 73.1281 258.826 69.5658 256.188 66.9428C253.55 64.3199 249.979 62.8506 246.258 62.8574C242.538 62.8643 238.972 64.3468 236.344 66.9795C233.715 69.6122 232.239 73.18 232.239 76.8998C232.239 80.6195 233.715 84.1873 236.344 86.82C238.972 89.4527 242.538 90.9352 246.258 90.9421C249.979 90.949 253.55 89.4797 256.188 86.8567C258.826 84.2338 260.315 80.6715 260.329 76.9517C260.329 76.9171 260.329 76.8825 260.329 76.8478Z" fill="#9F616A"/>
<path d="M239.994 68.8241C240.722 68.1395 241.68 67.7531 242.679 67.7414C244.179 67.6927 246.428 68.2254 247.384 69.4451C248.153 70.4253 248.19 71.7739 248.193 73.0197L248.201 76.458C248.204 77.4752 248.216 78.5358 248.678 79.442C249.141 80.3482 250.202 81.0365 251.171 80.7275C252.321 80.3611 252.827 78.833 254.002 78.5583C254.884 78.3519 255.791 78.9967 256.177 79.8168C256.502 80.6668 256.61 81.5848 256.491 82.4873C256.38 84.2876 253.797 85.0018 253.431 86.7682C253.22 87.7899 252.479 89.8281 253.431 89.4009C257.82 88.9621 259.746 86.3992 261.755 83.9865L266.285 78.5451C266.803 78.0049 267.2 77.3616 267.452 76.6573C267.564 76.1639 267.605 75.6568 267.572 75.1519C267.547 73.7994 267.51 72.4473 267.462 71.0956C267.419 69.9145 267.122 68.4244 265.965 68.1817C265.363 68.0554 264.567 68.2756 264.249 67.7495C264.13 67.4859 264.11 67.1879 264.194 66.911C264.45 65.5611 264.881 64.1493 264.436 62.8493C263.766 60.8887 261.459 60.0842 259.42 59.7143C257.381 59.3444 255.092 59.0262 253.812 57.3967C253.469 56.8556 253.098 56.3334 252.699 55.8324C252.112 55.2987 251.39 54.935 250.612 54.7801C248.081 54.1397 245.407 54.3769 243.028 55.4531C242.042 55.9031 241.051 56.5091 239.969 56.4405C238.845 56.3693 237.885 55.5785 236.776 55.3861C234.984 55.0753 233.27 56.4178 232.387 58.0077C231.293 59.9777 231.192 62.6755 232.738 64.3152C233.51 65.1333 234.66 65.6952 234.981 66.7729C235.111 67.2116 235.081 67.684 235.196 68.1268C235.33 68.5677 235.587 68.9616 235.935 69.2631C236.284 69.5646 236.71 69.7615 237.166 69.8309C238.262 70.0094 239.189 69.5075 239.994 68.8241Z" fill="#2F2E41"/>
<path d="M222.755 135.668C223.022 136.353 223.435 136.971 223.967 137.479C224.499 137.987 225.135 138.372 225.832 138.608C226.529 138.843 227.269 138.923 228 138.842C228.73 138.76 229.435 138.52 230.062 138.137L255.233 151.44L256.048 145.309L231.59 130.89C230.877 129.878 229.817 129.163 228.612 128.88C227.406 128.597 226.139 128.766 225.05 129.355C223.961 129.944 223.126 130.912 222.703 132.075C222.28 133.239 222.298 134.517 222.755 135.668V135.668Z" fill="#9F616A"/>
<path d="M256.298 136.727C255.888 137.337 255.349 137.85 254.719 138.229C254.089 138.609 253.383 138.845 252.652 138.923C251.921 139 251.181 138.916 250.486 138.677C249.791 138.437 249.156 138.049 248.627 137.538L221.155 145.012L221.394 137.229L248.723 130.132C249.64 129.301 250.831 128.835 252.069 128.823C253.307 128.81 254.506 129.252 255.44 130.065C256.374 130.878 256.977 132.005 257.135 133.233C257.293 134.461 256.995 135.704 256.298 136.727Z" fill="#9F616A"/>
<path d="M266.974 104.535L272.33 104.199C272.33 104.199 278.602 112.473 275.123 121.451C275.123 121.451 275.726 153.701 261.835 152.376C247.945 151.052 243.557 151.052 243.557 151.052L247.726 139.424L257.053 136.545C257.053 136.545 254.179 123.866 259.62 118.591L266.974 104.535Z" fill="#CBCBCB"/>
<path d="M228.296 104.251L227.539 100.371C227.539 100.371 216.374 100.109 214.166 117.024C214.166 117.024 204.126 142.339 213.967 145.598C223.808 148.858 234.633 145.598 234.633 145.598L233.818 134.435L222.99 132.225C222.99 132.225 228.583 124.99 225.537 118.714L228.296 104.251Z" fill="#CBCBCB"/>
<path d="M335.561 293.001H168.351C168.235 293.001 168.123 292.954 168.041 292.872C167.958 292.79 167.912 292.678 167.912 292.562C167.912 292.445 167.958 292.334 168.041 292.252C168.123 292.169 168.235 292.123 168.351 292.123H335.561C335.678 292.123 335.789 292.169 335.871 292.252C335.954 292.334 336 292.445 336 292.562C336 292.678 335.954 292.79 335.871 292.872C335.789 292.954 335.678 293.001 335.561 293.001Z" fill="#CBCBCB"/>
</g>
<defs>
<clipPath id="clip0">
<rect width="336" height="293" fill="white"/>
</clipPath>
</defs>
</svg>
